<svg width="420" height="595" viewBox="0 0 420 595" fill="none" xmlns="http://www.w3.org/2000/svg">
<rect width="420" height="595" fill="#CEE0F0"/>
<path d="M51.496 71.576H33.296L29.708 80H22.74L39.12 43.6H45.776L62.208 80H55.136L51.496 71.576ZM49.26 66.272L42.396 50.36L35.584 66.272H49.26ZM80.7732 43.6C83.9279 43.6 86.6666 44.12 88.9892 45.16C91.3466 46.2 93.1492 47.6907 94.3972 49.632C95.6452 51.5733 96.2692 53.8787 96.2692 56.548C96.2692 59.1827 95.6452 61.488 94.3972 63.464C93.1492 65.4053 91.3466 66.896 88.9892 67.936C86.6666 68.976 83.9279 69.496 80.7732 69.496H72.5572V80H65.7972V43.6H80.7732ZM80.4612 63.776C83.4079 63.776 85.6439 63.152 87.1692 61.904C88.6946 60.656 89.4572 58.8707 89.4572 56.548C89.4572 54.2253 88.6946 52.44 87.1692 51.192C85.6439 49.944 83.4079 49.32 80.4612 49.32H72.5572V63.776H80.4612ZM101.98 43.6H108.74V80H101.98V43.6ZM195.434 43.6H211.346C215.228 43.6 218.678 44.3627 221.694 45.888C224.71 47.3787 227.05 49.5107 228.714 52.284C230.378 55.0227 231.21 58.1947 231.21 61.8C231.21 65.4053 230.378 68.5947 228.714 71.368C227.05 74.1067 224.71 76.2387 221.694 77.764C218.678 79.2547 215.228 80 211.346 80H195.434V43.6ZM211.034 74.28C213.703 74.28 216.043 73.7773 218.054 72.772C220.099 71.732 221.659 70.276 222.734 68.404C223.843 66.4973 224.398 64.296 224.398 61.8C224.398 59.304 223.843 57.12 222.734 55.248C221.659 53.3413 220.099 51.8853 218.054 50.88C216.043 49.84 213.703 49.32 211.034 49.32H202.194V74.28H211.034ZM262.835 66.272C262.835 66.7227 262.8 67.364 262.731 68.196H240.943C241.324 70.2413 242.312 71.8707 243.907 73.084C245.536 74.2627 247.547 74.852 249.939 74.852C252.989 74.852 255.503 73.8467 257.479 71.836L260.963 75.84C259.715 77.3307 258.137 78.4573 256.231 79.22C254.324 79.9827 252.175 80.364 249.783 80.364C246.732 80.364 244.045 79.7573 241.723 78.544C239.4 77.3307 237.597 75.6493 236.315 73.5C235.067 71.316 234.443 68.8547 234.443 66.116C234.443 63.412 235.049 60.9853 236.263 58.836C237.511 56.652 239.227 54.9533 241.411 53.74C243.595 52.5267 246.056 51.92 248.795 51.92C251.499 51.92 253.908 52.5267 256.023 53.74C258.172 54.9187 259.836 56.6 261.015 58.784C262.228 60.9333 262.835 63.4293 262.835 66.272ZM248.795 57.12C246.715 57.12 244.947 57.744 243.491 58.992C242.069 60.2053 241.203 61.8347 240.891 63.88H256.647C256.369 61.8693 255.52 60.24 254.099 58.992C252.677 57.744 250.909 57.12 248.795 57.12ZM276.618 80.364C274.365 80.364 272.164 80.0693 270.014 79.48C267.865 78.8907 266.149 78.1453 264.866 77.244L267.362 72.304C268.61 73.136 270.101 73.812 271.834 74.332C273.602 74.8173 275.336 75.06 277.034 75.06C280.917 75.06 282.858 74.0373 282.858 71.992C282.858 71.0213 282.356 70.3453 281.35 69.964C280.38 69.5827 278.802 69.2187 276.618 68.872C274.33 68.5253 272.458 68.1267 271.002 67.676C269.581 67.2253 268.333 66.4453 267.258 65.336C266.218 64.192 265.698 62.6147 265.698 60.604C265.698 57.9693 266.79 55.872 268.974 54.312C271.193 52.7173 274.174 51.92 277.918 51.92C279.825 51.92 281.732 52.1453 283.638 52.596C285.545 53.012 287.105 53.584 288.318 54.312L285.822 59.252C283.465 57.8653 280.813 57.172 277.866 57.172C275.96 57.172 274.504 57.4667 273.498 58.056C272.528 58.6107 272.042 59.356 272.042 60.292C272.042 61.332 272.562 62.0773 273.602 62.528C274.677 62.944 276.324 63.3427 278.542 63.724C280.761 64.0707 282.581 64.4693 284.002 64.92C285.424 65.3707 286.637 66.1333 287.642 67.208C288.682 68.2827 289.202 69.808 289.202 71.784C289.202 74.384 288.076 76.464 285.822 78.024C283.569 79.584 280.501 80.364 276.618 80.364ZM293.76 52.232H300.26V80H293.76V52.232ZM297.036 47.656C295.857 47.656 294.869 47.292 294.072 46.564C293.275 45.8013 292.876 44.8653 292.876 43.756C292.876 42.6467 293.275 41.728 294.072 41C294.869 40.2373 295.857 39.856 297.036 39.856C298.215 39.856 299.203 40.22 300 40.948C300.797 41.6413 301.196 42.5253 301.196 43.6C301.196 44.744 300.797 45.7147 300 46.512C299.237 47.2747 298.249 47.656 297.036 47.656ZM335.311 52.232V75.788C335.311 85.564 330.319 90.452 320.335 90.452C317.666 90.452 315.135 90.1053 312.743 89.412C310.351 88.7533 308.375 87.7827 306.815 86.5L309.727 81.612C310.941 82.6173 312.466 83.4147 314.303 84.004C316.175 84.628 318.065 84.94 319.971 84.94C323.022 84.94 325.258 84.2467 326.679 82.86C328.101 81.4733 328.811 79.3587 328.811 76.516V75.06C327.702 76.2733 326.35 77.192 324.755 77.816C323.161 78.44 321.41 78.752 319.503 78.752C316.869 78.752 314.477 78.1973 312.327 77.088C310.213 75.944 308.531 74.3493 307.283 72.304C306.07 70.2587 305.463 67.9187 305.463 65.284C305.463 62.6493 306.07 60.3267 307.283 58.316C308.531 56.2707 310.213 54.6933 312.327 53.584C314.477 52.4747 316.869 51.92 319.503 51.92C321.514 51.92 323.334 52.2493 324.963 52.908C326.627 53.5667 328.014 54.572 329.123 55.924V52.232H335.311ZM320.491 73.24C322.953 73.24 324.963 72.512 326.523 71.056C328.118 69.5653 328.915 67.6413 328.915 65.284C328.915 62.9613 328.118 61.072 326.523 59.616C324.963 58.16 322.953 57.432 320.491 57.432C317.995 57.432 315.95 58.16 314.355 59.616C312.795 61.072 312.015 62.9613 312.015 65.284C312.015 67.6413 312.795 69.5653 314.355 71.056C315.95 72.512 317.995 73.24 320.491 73.24ZM358.573 51.92C362.074 51.92 364.882 52.9427 366.997 54.988C369.112 57.0333 370.169 60.0667 370.169 64.088V80H363.669V64.92C363.669 62.4933 363.097 60.6733 361.953 59.46C360.809 58.212 359.18 57.588 357.065 57.588C354.673 57.588 352.784 58.316 351.397 59.772C350.01 61.1933 349.317 63.256 349.317 65.96V80H342.817V52.232H349.005V55.82C350.08 54.5373 351.432 53.5667 353.061 52.908C354.69 52.2493 356.528 51.92 358.573 51.92Z" fill="black"/>
<path d="M142.242 56.78C144.478 56.78 146.471 57.2673 148.219 58.242C149.997 59.2167 151.387 60.5927 152.39 62.37C153.394 64.1473 153.895 66.197 153.895 68.519C153.895 70.841 153.394 72.905 152.39 74.711C151.387 76.4883 149.997 77.8643 148.219 78.839C146.471 79.8137 144.478 80.301 142.242 80.301C140.666 80.301 139.218 80.0287 137.899 79.484C136.609 78.9393 135.52 78.1223 134.631 77.033V80H129.514V48.094H134.889V59.833C135.807 58.8297 136.882 58.07 138.114 57.554C139.376 57.038 140.752 56.78 142.242 56.78ZM141.64 75.7C143.618 75.7 145.238 75.0407 146.499 73.722C147.789 72.4033 148.434 70.669 148.434 68.519C148.434 66.369 147.789 64.6347 146.499 63.316C145.238 61.9973 143.618 61.338 141.64 61.338C140.35 61.338 139.189 61.639 138.157 62.241C137.125 62.8143 136.308 63.6457 135.706 64.735C135.104 65.8243 134.803 67.0857 134.803 68.519C134.803 69.9523 135.104 71.2137 135.706 72.303C136.308 73.3923 137.125 74.238 138.157 74.84C139.189 75.4133 140.35 75.7 141.64 75.7ZM179.003 57.038L168.253 81.849C167.25 84.343 166.031 86.0917 164.598 87.095C163.165 88.127 161.43 88.643 159.395 88.643C158.248 88.643 157.116 88.4567 155.998 88.084C154.88 87.7113 153.963 87.1953 153.246 86.536L155.396 82.58C155.912 83.0673 156.514 83.4543 157.202 83.741C157.919 84.0277 158.635 84.171 159.352 84.171C160.298 84.171 161.072 83.9273 161.674 83.44C162.305 82.9527 162.878 82.1357 163.394 80.989L163.781 80.086L153.762 57.038H159.352L166.576 74.023L173.843 57.038H179.003Z" fill="#6D9BC5"/>
<path d="M29.18 560.16C28.1267 560.16 27.1067 560 26.12 559.68C25.1467 559.347 24.38 558.92 23.82 558.4L24.56 556.84C25.0933 557.32 25.7733 557.713 26.6 558.02C27.44 558.313 28.3 558.46 29.18 558.46C30.34 558.46 31.2067 558.267 31.78 557.88C32.3533 557.48 32.64 556.953 32.64 556.3C32.64 555.82 32.48 555.433 32.16 555.14C31.8533 554.833 31.4667 554.6 31 554.44C30.5467 554.28 29.9 554.1 29.06 553.9C28.0067 553.647 27.1533 553.393 26.5 553.14C25.86 552.887 25.3067 552.5 24.84 551.98C24.3867 551.447 24.16 550.733 24.16 549.84C24.16 549.093 24.3533 548.42 24.74 547.82C25.14 547.22 25.74 546.74 26.54 546.38C27.34 546.02 28.3333 545.84 29.52 545.84C30.3467 545.84 31.16 545.947 31.96 546.16C32.76 546.373 33.4467 546.68 34.02 547.08L33.36 548.68C32.7733 548.307 32.1467 548.027 31.48 547.84C30.8133 547.64 30.16 547.54 29.52 547.54C28.3867 547.54 27.5333 547.747 26.96 548.16C26.4 548.573 26.12 549.107 26.12 549.76C26.12 550.24 26.28 550.633 26.6 550.94C26.92 551.233 27.3133 551.467 27.78 551.64C28.26 551.8 28.9067 551.973 29.72 552.16C30.7733 552.413 31.62 552.667 32.26 552.92C32.9 553.173 33.4467 553.56 33.9 554.08C34.3667 554.6 34.6 555.3 34.6 556.18C34.6 556.913 34.4 557.587 34 558.2C33.6 558.8 32.9933 559.28 32.18 559.64C31.3667 559.987 30.3667 560.16 29.18 560.16ZM42.8019 559.38C42.5219 559.62 42.1752 559.807 41.7619 559.94C41.3485 560.06 40.9219 560.12 40.4819 560.12C39.4152 560.12 38.5885 559.833 38.0019 559.26C37.4152 558.687 37.1219 557.867 37.1219 556.8V550.98H35.3219V549.4H37.1219V547.08H39.0419V549.4H42.0819V550.98H39.0419V556.72C39.0419 557.293 39.1819 557.733 39.4619 558.04C39.7552 558.347 40.1685 558.5 40.7019 558.5C41.2885 558.5 41.7885 558.333 42.2019 558L42.8019 559.38ZM53.9516 554.76C53.9516 554.907 53.9382 555.1 53.9116 555.34H45.3116C45.4316 556.273 45.8382 557.027 46.5316 557.6C47.2382 558.16 48.1116 558.44 49.1516 558.44C50.4182 558.44 51.4382 558.013 52.2116 557.16L53.2716 558.4C52.7916 558.96 52.1916 559.387 51.4716 559.68C50.7649 559.973 49.9716 560.12 49.0916 560.12C47.9716 560.12 46.9782 559.893 46.1116 559.44C45.2449 558.973 44.5716 558.327 44.0916 557.5C43.6249 556.673 43.3916 555.74 43.3916 554.7C43.3916 553.673 43.6182 552.747 44.0716 551.92C44.5382 551.093 45.1716 550.453 45.9716 550C46.7849 549.533 47.6982 549.3 48.7116 549.3C49.7249 549.3 50.6249 549.533 51.4116 550C52.2116 550.453 52.8316 551.093 53.2716 551.92C53.7249 552.747 53.9516 553.693 53.9516 554.76ZM48.7116 550.92C47.7916 550.92 47.0182 551.2 46.3916 551.76C45.7782 552.32 45.4182 553.053 45.3116 553.96H52.1116C52.0049 553.067 51.6382 552.34 51.0116 551.78C50.3982 551.207 49.6316 550.92 48.7116 550.92ZM61.8377 549.3C62.8643 549.3 63.7843 549.527 64.5977 549.98C65.411 550.433 66.0443 551.067 66.4977 551.88C66.9643 552.693 67.1977 553.633 67.1977 554.7C67.1977 555.767 66.9643 556.713 66.4977 557.54C66.0443 558.353 65.411 558.987 64.5977 559.44C63.7843 559.893 62.8643 560.12 61.8377 560.12C61.0777 560.12 60.3777 559.973 59.7377 559.68C59.111 559.387 58.5777 558.96 58.1377 558.4V563.88H56.2177V549.4H58.0577V551.08C58.4843 550.493 59.0243 550.053 59.6777 549.76C60.331 549.453 61.051 549.3 61.8377 549.3ZM61.6777 558.44C62.3577 558.44 62.9643 558.287 63.4977 557.98C64.0443 557.66 64.471 557.22 64.7777 556.66C65.0977 556.087 65.2577 555.433 65.2577 554.7C65.2577 553.967 65.0977 553.32 64.7777 552.76C64.471 552.187 64.0443 551.747 63.4977 551.44C62.9643 551.133 62.3577 550.98 61.6777 550.98C61.011 550.98 60.4043 551.14 59.8577 551.46C59.3243 551.767 58.8977 552.2 58.5777 552.76C58.271 553.32 58.1177 553.967 58.1177 554.7C58.1177 555.433 58.271 556.087 58.5777 556.66C58.8843 557.22 59.311 557.66 59.8577 557.98C60.4043 558.287 61.011 558.44 61.6777 558.44ZM75.1105 549.3C76.4571 549.3 77.5238 549.693 78.3105 550.48C79.1105 551.253 79.5105 552.393 79.5105 553.9V560H77.5905V554.12C77.5905 553.093 77.3438 552.32 76.8505 551.8C76.3571 551.28 75.6505 551.02 74.7305 551.02C73.6905 551.02 72.8705 551.327 72.2705 551.94C71.6705 552.54 71.3705 553.407 71.3705 554.54V560H69.4505V545.16H71.3705V550.9C71.7705 550.393 72.2905 550 72.9305 549.72C73.5838 549.44 74.3105 549.3 75.1105 549.3ZM92.3023 554.76C92.3023 554.907 92.289 555.1 92.2623 555.34H83.6623C83.7823 556.273 84.189 557.027 84.8823 557.6C85.589 558.16 86.4623 558.44 87.5023 558.44C88.769 558.44 89.789 558.013 90.5623 557.16L91.6223 558.4C91.1423 558.96 90.5423 559.387 89.8223 559.68C89.1157 559.973 88.3223 560.12 87.4423 560.12C86.3223 560.12 85.329 559.893 84.4623 559.44C83.5957 558.973 82.9223 558.327 82.4423 557.5C81.9757 556.673 81.7423 555.74 81.7423 554.7C81.7423 553.673 81.969 552.747 82.4223 551.92C82.889 551.093 83.5223 550.453 84.3223 550C85.1357 549.533 86.049 549.3 87.0623 549.3C88.0757 549.3 88.9757 549.533 89.7623 550C90.5623 550.453 91.1823 551.093 91.6223 551.92C92.0757 552.747 92.3023 553.693 92.3023 554.76ZM87.0623 550.92C86.1423 550.92 85.369 551.2 84.7423 551.76C84.129 552.32 83.769 553.053 83.6623 553.96H90.4623C90.3557 553.067 89.989 552.34 89.3623 551.78C88.749 551.207 87.9823 550.92 87.0623 550.92ZM100.228 549.3C101.575 549.3 102.642 549.693 103.428 550.48C104.228 551.253 104.628 552.393 104.628 553.9V560H102.708V554.12C102.708 553.093 102.462 552.32 101.968 551.8C101.475 551.28 100.768 551.02 99.8484 551.02C98.8084 551.02 97.9884 551.327 97.3884 551.94C96.7884 552.54 96.4884 553.407 96.4884 554.54V560H94.5684V549.4H96.4084V551C96.7951 550.453 97.3151 550.033 97.9684 549.74C98.6351 549.447 99.3884 549.3 100.228 549.3ZM126.013 560L125.993 549.8L120.933 558.3H120.013L114.953 549.86V560H113.033V546H114.673L120.513 555.84L126.273 546H127.913L127.933 560H126.013ZM131.454 549.4H133.374V560H131.454V549.4ZM132.414 547.36C132.041 547.36 131.728 547.24 131.474 547C131.234 546.76 131.114 546.467 131.114 546.12C131.114 545.773 131.234 545.48 131.474 545.24C131.728 544.987 132.041 544.86 132.414 544.86C132.788 544.86 133.094 544.98 133.334 545.22C133.588 545.447 133.714 545.733 133.714 546.08C133.714 546.44 133.588 546.747 133.334 547C133.094 547.24 132.788 547.36 132.414 547.36ZM144.5 558.42V560H135.62V558.76L141.88 550.98H135.74V549.4H144.34V550.66L138.08 558.42H144.5ZM156.094 554.76C156.094 554.907 156.08 555.1 156.054 555.34H147.454C147.574 556.273 147.98 557.027 148.674 557.6C149.38 558.16 150.254 558.44 151.294 558.44C152.56 558.44 153.58 558.013 154.354 557.16L155.414 558.4C154.934 558.96 154.334 559.387 153.614 559.68C152.907 559.973 152.114 560.12 151.234 560.12C150.114 560.12 149.12 559.893 148.254 559.44C147.387 558.973 146.714 558.327 146.234 557.5C145.767 556.673 145.534 555.74 145.534 554.7C145.534 553.673 145.76 552.747 146.214 551.92C146.68 551.093 147.314 550.453 148.114 550C148.927 549.533 149.84 549.3 150.854 549.3C151.867 549.3 152.767 549.533 153.554 550C154.354 550.453 154.974 551.093 155.414 551.92C155.867 552.747 156.094 553.693 156.094 554.76ZM150.854 550.92C149.934 550.92 149.16 551.2 148.534 551.76C147.92 552.32 147.56 553.053 147.454 553.96H154.254C154.147 553.067 153.78 552.34 153.154 551.78C152.54 551.207 151.774 550.92 150.854 550.92ZM158.36 545.16H160.28V560H158.36V545.16ZM163.546 545.16H165.466V560H163.546V545.16Z" fill="black"/>
<path d="M41 281L134 351L193 311L176 420L292 409L55 378L217 364L87 414L124 299L266 364V311L246 378L344 391L279 276L322 420L376 372L328 292L170 286L235 266L47 357L41 281Z" stroke="black" stroke-opacity="0.83"/>
<path d="M36.08 132L36.06 121.8L31 130.3H30.08L25.02 121.86V132H23.1V118H24.74L30.58 127.84L36.34 118H37.98L38 132H36.08ZM51.3016 126.76C51.3016 126.907 51.2882 127.1 51.2616 127.34H42.6616C42.7816 128.273 43.1882 129.027 43.8816 129.6C44.5882 130.16 45.4616 130.44 46.5016 130.44C47.7682 130.44 48.7882 130.013 49.5616 129.16L50.6216 130.4C50.1416 130.96 49.5416 131.387 48.8216 131.68C48.1149 131.973 47.3216 132.12 46.4416 132.12C45.3216 132.12 44.3282 131.893 43.4616 131.44C42.5949 130.973 41.9216 130.327 41.4416 129.5C40.9749 128.673 40.7416 127.74 40.7416 126.7C40.7416 125.673 40.9682 124.747 41.4216 123.92C41.8882 123.093 42.5216 122.453 43.3216 122C44.1349 121.533 45.0482 121.3 46.0616 121.3C47.0749 121.3 47.9749 121.533 48.7616 122C49.5616 122.453 50.1816 123.093 50.6216 123.92C51.0749 124.747 51.3016 125.693 51.3016 126.76ZM46.0616 122.92C45.1416 122.92 44.3682 123.2 43.7416 123.76C43.1282 124.32 42.7682 125.053 42.6616 125.96H49.4616C49.3549 125.067 48.9882 124.34 48.3616 123.78C47.7482 123.207 46.9816 122.92 46.0616 122.92ZM57.3347 121.3C58.8014 121.3 59.9214 121.66 60.6947 122.38C61.4814 123.1 61.8747 124.173 61.8747 125.6V132H60.0547V130.6C59.7347 131.093 59.2747 131.473 58.6747 131.74C58.088 131.993 57.388 132.12 56.5747 132.12C55.388 132.12 54.4347 131.833 53.7147 131.26C53.008 130.687 52.6547 129.933 52.6547 129C52.6547 128.067 52.9947 127.32 53.6747 126.76C54.3547 126.187 55.4347 125.9 56.9147 125.9H59.9547V125.52C59.9547 124.693 59.7147 124.06 59.2347 123.62C58.7547 123.18 58.048 122.96 57.1147 122.96C56.488 122.96 55.8747 123.067 55.2747 123.28C54.6747 123.48 54.168 123.753 53.7547 124.1L52.9547 122.66C53.5014 122.22 54.1547 121.887 54.9147 121.66C55.6747 121.42 56.4814 121.3 57.3347 121.3ZM56.8947 130.64C57.628 130.64 58.2614 130.48 58.7947 130.16C59.328 129.827 59.7147 129.36 59.9547 128.76V127.28H56.9947C55.368 127.28 54.5547 127.827 54.5547 128.92C54.5547 129.453 54.7614 129.873 55.1747 130.18C55.588 130.487 56.1614 130.64 56.8947 130.64ZM68.2678 132.12C67.4011 132.12 66.5678 132.007 65.7678 131.78C64.9678 131.54 64.3411 131.24 63.8878 130.88L64.6878 129.36C65.1545 129.693 65.7211 129.96 66.3878 130.16C67.0545 130.36 67.7278 130.46 68.4078 130.46C70.0878 130.46 70.9278 129.98 70.9278 129.02C70.9278 128.7 70.8145 128.447 70.5878 128.26C70.3611 128.073 70.0745 127.94 69.7278 127.86C69.3945 127.767 68.9145 127.667 68.2878 127.56C67.4345 127.427 66.7345 127.273 66.1878 127.1C65.6545 126.927 65.1945 126.633 64.8078 126.22C64.4211 125.807 64.2278 125.227 64.2278 124.48C64.2278 123.52 64.6278 122.753 65.4278 122.18C66.2278 121.593 67.3011 121.3 68.6478 121.3C69.3545 121.3 70.0611 121.387 70.7678 121.56C71.4745 121.733 72.0545 121.967 72.5078 122.26L71.6878 123.78C70.8211 123.22 69.8011 122.94 68.6278 122.94C67.8145 122.94 67.1945 123.073 66.7678 123.34C66.3411 123.607 66.1278 123.96 66.1278 124.4C66.1278 124.747 66.2478 125.02 66.4878 125.22C66.7278 125.42 67.0211 125.567 67.3678 125.66C67.7278 125.753 68.2278 125.86 68.8678 125.98C69.7211 126.127 70.4078 126.287 70.9278 126.46C71.4611 126.62 71.9145 126.9 72.2878 127.3C72.6611 127.7 72.8478 128.26 72.8478 128.98C72.8478 129.94 72.4345 130.707 71.6078 131.28C70.7945 131.84 69.6811 132.12 68.2678 132.12ZM84.9273 121.4V132H83.1073V130.4C82.7207 130.947 82.2073 131.373 81.5673 131.68C80.9407 131.973 80.254 132.12 79.5073 132.12C78.094 132.12 76.9807 131.733 76.1673 130.96C75.354 130.173 74.9473 129.02 74.9473 127.5V121.4H76.8673V127.28C76.8673 128.307 77.114 129.087 77.6073 129.62C78.1007 130.14 78.8073 130.4 79.7273 130.4C80.7407 130.4 81.5407 130.093 82.1273 129.48C82.714 128.867 83.0073 128 83.0073 126.88V121.4H84.9273ZM90.2225 123.18C90.5558 122.567 91.0492 122.1 91.7025 121.78C92.3558 121.46 93.1492 121.3 94.0825 121.3V123.16C93.9758 123.147 93.8292 123.14 93.6425 123.14C92.6025 123.14 91.7825 123.453 91.1825 124.08C90.5958 124.693 90.3025 125.573 90.3025 126.72V132H88.3825V121.4H90.2225V123.18ZM105.731 126.76C105.731 126.907 105.718 127.1 105.691 127.34H97.0913C97.2113 128.273 97.6179 129.027 98.3113 129.6C99.0179 130.16 99.8913 130.44 100.931 130.44C102.198 130.44 103.218 130.013 103.991 129.16L105.051 130.4C104.571 130.96 103.971 131.387 103.251 131.68C102.545 131.973 101.751 132.12 100.871 132.12C99.7513 132.12 98.7579 131.893 97.8913 131.44C97.0246 130.973 96.3513 130.327 95.8713 129.5C95.4046 128.673 95.1713 127.74 95.1713 126.7C95.1713 125.673 95.3979 124.747 95.8513 123.92C96.3179 123.093 96.9513 122.453 97.7513 122C98.5646 121.533 99.4779 121.3 100.491 121.3C101.505 121.3 102.405 121.533 103.191 122C103.991 122.453 104.611 123.093 105.051 123.92C105.505 124.747 105.731 125.693 105.731 126.76ZM100.491 122.92C99.5713 122.92 98.7979 123.2 98.1713 123.76C97.5579 124.32 97.1979 125.053 97.0913 125.96H103.891C103.785 125.067 103.418 124.34 102.791 123.78C102.178 123.207 101.411 122.92 100.491 122.92ZM117.988 132.12C116.908 132.12 115.942 131.887 115.088 131.42C114.248 130.953 113.588 130.313 113.108 129.5C112.628 128.673 112.388 127.74 112.388 126.7C112.388 125.66 112.628 124.733 113.108 123.92C113.588 123.093 114.248 122.453 115.088 122C115.942 121.533 116.908 121.3 117.988 121.3C118.948 121.3 119.802 121.493 120.548 121.88C121.308 122.267 121.895 122.827 122.308 123.56L120.848 124.5C120.515 123.993 120.102 123.613 119.608 123.36C119.115 123.107 118.568 122.98 117.968 122.98C117.275 122.98 116.648 123.133 116.088 123.44C115.542 123.747 115.108 124.187 114.788 124.76C114.482 125.32 114.328 125.967 114.328 126.7C114.328 127.447 114.482 128.107 114.788 128.68C115.108 129.24 115.542 129.673 116.088 129.98C116.648 130.287 117.275 130.44 117.968 130.44C118.568 130.44 119.115 130.313 119.608 130.06C120.102 129.807 120.515 129.427 120.848 128.92L122.308 129.84C121.895 130.573 121.308 131.14 120.548 131.54C119.802 131.927 118.948 132.12 117.988 132.12ZM128.978 132.12C127.925 132.12 126.978 131.887 126.138 131.42C125.298 130.953 124.638 130.313 124.158 129.5C123.691 128.673 123.458 127.74 123.458 126.7C123.458 125.66 123.691 124.733 124.158 123.92C124.638 123.093 125.298 122.453 126.138 122C126.978 121.533 127.925 121.3 128.978 121.3C130.031 121.3 130.971 121.533 131.798 122C132.638 122.453 133.291 123.093 133.758 123.92C134.238 124.733 134.478 125.66 134.478 126.7C134.478 127.74 134.238 128.673 133.758 129.5C133.291 130.313 132.638 130.953 131.798 131.42C130.971 131.887 130.031 132.12 128.978 132.12ZM128.978 130.44C129.658 130.44 130.265 130.287 130.798 129.98C131.345 129.66 131.771 129.22 132.078 128.66C132.385 128.087 132.538 127.433 132.538 126.7C132.538 125.967 132.385 125.32 132.078 124.76C131.771 124.187 131.345 123.747 130.798 123.44C130.265 123.133 129.658 122.98 128.978 122.98C128.298 122.98 127.685 123.133 127.138 123.44C126.605 123.747 126.178 124.187 125.858 124.76C125.551 125.32 125.398 125.967 125.398 126.7C125.398 127.433 125.551 128.087 125.858 128.66C126.178 129.22 126.605 129.66 127.138 129.98C127.685 130.287 128.298 130.44 128.978 130.44ZM150.193 121.3C151.527 121.3 152.58 121.687 153.353 122.46C154.14 123.233 154.533 124.38 154.533 125.9V132H152.613V126.12C152.613 125.093 152.373 124.32 151.893 123.8C151.427 123.28 150.753 123.02 149.873 123.02C148.9 123.02 148.127 123.327 147.553 123.94C146.98 124.54 146.693 125.407 146.693 126.54V132H144.773V126.12C144.773 125.093 144.533 124.32 144.053 123.8C143.587 123.28 142.913 123.02 142.033 123.02C141.06 123.02 140.287 123.327 139.713 123.94C139.14 124.54 138.853 125.407 138.853 126.54V132H136.933V121.4H138.773V122.98C139.16 122.433 139.667 122.02 140.293 121.74C140.92 121.447 141.633 121.3 142.433 121.3C143.26 121.3 143.993 121.467 144.633 121.8C145.273 122.133 145.767 122.62 146.113 123.26C146.513 122.647 147.067 122.167 147.773 121.82C148.493 121.473 149.3 121.3 150.193 121.3ZM163.486 121.3C164.513 121.3 165.433 121.527 166.246 121.98C167.059 122.433 167.693 123.067 168.146 123.88C168.613 124.693 168.846 125.633 168.846 126.7C168.846 127.767 168.613 128.713 168.146 129.54C167.693 130.353 167.059 130.987 166.246 131.44C165.433 131.893 164.513 132.12 163.486 132.12C162.726 132.12 162.026 131.973 161.386 131.68C160.759 131.387 160.226 130.96 159.786 130.4V135.88H157.866V121.4H159.706V123.08C160.133 122.493 160.673 122.053 161.326 121.76C161.979 121.453 162.699 121.3 163.486 121.3ZM163.326 130.44C164.006 130.44 164.613 130.287 165.146 129.98C165.693 129.66 166.119 129.22 166.426 128.66C166.746 128.087 166.906 127.433 166.906 126.7C166.906 125.967 166.746 125.32 166.426 124.76C166.119 124.187 165.693 123.747 165.146 123.44C164.613 123.133 164.006 122.98 163.326 122.98C162.659 122.98 162.053 123.14 161.506 123.46C160.973 123.767 160.546 124.2 160.226 124.76C159.919 125.32 159.766 125.967 159.766 126.7C159.766 127.433 159.919 128.087 160.226 128.66C160.533 129.22 160.959 129.66 161.506 129.98C162.053 130.287 162.659 130.44 163.326 130.44ZM171.299 117.16H173.219V132H171.299V117.16ZM186.265 126.76C186.265 126.907 186.252 127.1 186.225 127.34H177.625C177.745 128.273 178.152 129.027 178.845 129.6C179.552 130.16 180.425 130.44 181.465 130.44C182.732 130.44 183.752 130.013 184.525 129.16L185.585 130.4C185.105 130.96 184.505 131.387 183.785 131.68C183.078 131.973 182.285 132.12 181.405 132.12C180.285 132.12 179.292 131.893 178.425 131.44C177.558 130.973 176.885 130.327 176.405 129.5C175.938 128.673 175.705 127.74 175.705 126.7C175.705 125.673 175.932 124.747 176.385 123.92C176.852 123.093 177.485 122.453 178.285 122C179.098 121.533 180.012 121.3 181.025 121.3C182.038 121.3 182.938 121.533 183.725 122C184.525 122.453 185.145 123.093 185.585 123.92C186.038 124.747 186.265 125.693 186.265 126.76ZM181.025 122.92C180.105 122.92 179.332 123.2 178.705 123.76C178.092 124.32 177.732 125.053 177.625 125.96H184.425C184.318 125.067 183.952 124.34 183.325 123.78C182.712 123.207 181.945 122.92 181.025 122.92ZM195.198 132L192.138 127.94L189.038 132H186.898L191.078 126.58L187.098 121.4H189.238L192.158 125.22L195.058 121.4H197.158L193.158 126.58L197.378 132H195.198ZM199.273 121.4H201.193V132H199.273V121.4ZM200.233 119.36C199.86 119.36 199.546 119.24 199.293 119C199.053 118.76 198.933 118.467 198.933 118.12C198.933 117.773 199.053 117.48 199.293 117.24C199.546 116.987 199.86 116.86 200.233 116.86C200.606 116.86 200.913 116.98 201.153 117.22C201.406 117.447 201.533 117.733 201.533 118.08C201.533 118.44 201.406 118.747 201.153 119C200.913 119.24 200.606 119.36 200.233 119.36ZM210.619 131.38C210.339 131.62 209.992 131.807 209.579 131.94C209.166 132.06 208.739 132.12 208.299 132.12C207.232 132.12 206.406 131.833 205.819 131.26C205.232 130.687 204.939 129.867 204.939 128.8V122.98H203.139V121.4H204.939V119.08H206.859V121.4H209.899V122.98H206.859V128.72C206.859 129.293 206.999 129.733 207.279 130.04C207.572 130.347 207.986 130.5 208.519 130.5C209.106 130.5 209.606 130.333 210.019 130L210.619 131.38ZM221.925 121.4L216.785 133.06C216.332 134.14 215.798 134.9 215.185 135.34C214.585 135.78 213.858 136 213.005 136C212.485 136 211.978 135.913 211.485 135.74C211.005 135.58 210.605 135.34 210.285 135.02L211.105 133.58C211.652 134.1 212.285 134.36 213.005 134.36C213.472 134.36 213.858 134.233 214.165 133.98C214.485 133.74 214.772 133.32 215.025 132.72L215.365 131.98L210.685 121.4H212.685L216.385 129.88L220.045 121.4H221.925ZM223.313 132.12C222.939 132.12 222.619 131.993 222.353 131.74C222.086 131.473 221.953 131.14 221.953 130.74C221.953 130.353 222.086 130.033 222.353 129.78C222.619 129.513 222.939 129.38 223.313 129.38C223.686 129.38 223.999 129.507 224.253 129.76C224.506 130.013 224.633 130.34 224.633 130.74C224.633 131.14 224.499 131.473 224.233 131.74C223.979 131.993 223.673 132.12 223.313 132.12ZM36.08 163L36.06 152.8L31 161.3H30.08L25.02 152.86V163H23.1V149H24.74L30.58 158.84L36.34 149H37.98L38 163H36.08ZM45.5816 152.3C47.0482 152.3 48.1682 152.66 48.9416 153.38C49.7282 154.1 50.1216 155.173 50.1216 156.6V163H48.3016V161.6C47.9816 162.093 47.5216 162.473 46.9216 162.74C46.3349 162.993 45.6349 163.12 44.8216 163.12C43.6349 163.12 42.6816 162.833 41.9616 162.26C41.2549 161.687 40.9016 160.933 40.9016 160C40.9016 159.067 41.2416 158.32 41.9216 157.76C42.6016 157.187 43.6816 156.9 45.1616 156.9H48.2016V156.52C48.2016 155.693 47.9616 155.06 47.4816 154.62C47.0016 154.18 46.2949 153.96 45.3616 153.96C44.7349 153.96 44.1216 154.067 43.5216 154.28C42.9216 154.48 42.4149 154.753 42.0016 155.1L41.2016 153.66C41.7482 153.22 42.4016 152.887 43.1616 152.66C43.9216 152.42 44.7282 152.3 45.5816 152.3ZM45.1416 161.64C45.8749 161.64 46.5082 161.48 47.0416 161.16C47.5749 160.827 47.9616 160.36 48.2016 159.76V158.28H45.2416C43.6149 158.28 42.8016 158.827 42.8016 159.92C42.8016 160.453 43.0082 160.873 43.4216 161.18C43.8349 161.487 44.4082 161.64 45.1416 161.64ZM57.5947 158.06L55.3947 160.1V163H53.4747V148.16H55.3947V157.68L61.1747 152.4H63.4947L59.0347 156.78L63.9347 163H61.5747L57.5947 158.06ZM74.7297 157.76C74.7297 157.907 74.7164 158.1 74.6897 158.34H66.0897C66.2097 159.273 66.6164 160.027 67.3097 160.6C68.0164 161.16 68.8897 161.44 69.9297 161.44C71.1964 161.44 72.2164 161.013 72.9897 160.16L74.0497 161.4C73.5697 161.96 72.9697 162.387 72.2497 162.68C71.543 162.973 70.7497 163.12 69.8697 163.12C68.7497 163.12 67.7564 162.893 66.8897 162.44C66.023 161.973 65.3497 161.327 64.8697 160.5C64.403 159.673 64.1697 158.74 64.1697 157.7C64.1697 156.673 64.3964 155.747 64.8497 154.92C65.3164 154.093 65.9497 153.453 66.7497 153C67.563 152.533 68.4764 152.3 69.4897 152.3C70.503 152.3 71.403 152.533 72.1897 153C72.9897 153.453 73.6097 154.093 74.0497 154.92C74.503 155.747 74.7297 156.693 74.7297 157.76ZM69.4897 153.92C68.5697 153.92 67.7964 154.2 67.1697 154.76C66.5564 155.32 66.1964 156.053 66.0897 156.96H72.8897C72.783 156.067 72.4164 155.34 71.7897 154.78C71.1764 154.207 70.4097 153.92 69.4897 153.92ZM82.3669 152.4H84.2869V163H82.3669V152.4ZM83.3269 150.36C82.9535 150.36 82.6402 150.24 82.3869 150C82.1469 149.76 82.0269 149.467 82.0269 149.12C82.0269 148.773 82.1469 148.48 82.3869 148.24C82.6402 147.987 82.9535 147.86 83.3269 147.86C83.7002 147.86 84.0069 147.98 84.2469 148.22C84.5002 148.447 84.6269 148.733 84.6269 149.08C84.6269 149.44 84.5002 149.747 84.2469 150C84.0069 150.24 83.7002 150.36 83.3269 150.36ZM93.4128 152.3C94.7595 152.3 95.8261 152.693 96.6128 153.48C97.4128 154.253 97.8128 155.393 97.8128 156.9V163H95.8928V157.12C95.8928 156.093 95.6461 155.32 95.1528 154.8C94.6595 154.28 93.9528 154.02 93.0328 154.02C91.9928 154.02 91.1728 154.327 90.5728 154.94C89.9728 155.54 89.6728 156.407 89.6728 157.54V163H87.7528V152.4H89.5928V154C89.9795 153.453 90.4995 153.033 91.1528 152.74C91.8195 152.447 92.5728 152.3 93.4128 152.3ZM105.046 149.62C103.899 149.62 103.326 150.24 103.326 151.48V152.4H106.406V153.98H103.366V163H101.446V153.98H99.6461V152.4H101.446V151.46C101.446 150.407 101.753 149.573 102.366 148.96C102.979 148.347 103.839 148.04 104.946 148.04C105.373 148.04 105.773 148.093 106.146 148.2C106.519 148.307 106.839 148.46 107.106 148.66L106.526 150.12C106.086 149.787 105.593 149.62 105.046 149.62ZM112.401 163.12C111.347 163.12 110.401 162.887 109.561 162.42C108.721 161.953 108.061 161.313 107.581 160.5C107.114 159.673 106.881 158.74 106.881 157.7C106.881 156.66 107.114 155.733 107.581 154.92C108.061 154.093 108.721 153.453 109.561 153C110.401 152.533 111.347 152.3 112.401 152.3C113.454 152.3 114.394 152.533 115.221 153C116.061 153.453 116.714 154.093 117.181 154.92C117.661 155.733 117.901 156.66 117.901 157.7C117.901 158.74 117.661 159.673 117.181 160.5C116.714 161.313 116.061 161.953 115.221 162.42C114.394 162.887 113.454 163.12 112.401 163.12ZM112.401 161.44C113.081 161.44 113.687 161.287 114.221 160.98C114.767 160.66 115.194 160.22 115.501 159.66C115.807 159.087 115.961 158.433 115.961 157.7C115.961 156.967 115.807 156.32 115.501 155.76C115.194 155.187 114.767 154.747 114.221 154.44C113.687 154.133 113.081 153.98 112.401 153.98C111.721 153.98 111.107 154.133 110.561 154.44C110.027 154.747 109.601 155.187 109.281 155.76C108.974 156.32 108.821 156.967 108.821 157.7C108.821 158.433 108.974 159.087 109.281 159.66C109.601 160.22 110.027 160.66 110.561 160.98C111.107 161.287 111.721 161.44 112.401 161.44ZM122.196 154.18C122.529 153.567 123.023 153.1 123.676 152.78C124.329 152.46 125.123 152.3 126.056 152.3V154.16C125.949 154.147 125.803 154.14 125.616 154.14C124.576 154.14 123.756 154.453 123.156 155.08C122.569 155.693 122.276 156.573 122.276 157.72V163H120.356V152.4H122.196V154.18ZM141.482 152.3C142.816 152.3 143.869 152.687 144.642 153.46C145.429 154.233 145.822 155.38 145.822 156.9V163H143.902V157.12C143.902 156.093 143.662 155.32 143.182 154.8C142.716 154.28 142.042 154.02 141.162 154.02C140.189 154.02 139.416 154.327 138.842 154.94C138.269 155.54 137.982 156.407 137.982 157.54V163H136.062V157.12C136.062 156.093 135.822 155.32 135.342 154.8C134.876 154.28 134.202 154.02 133.322 154.02C132.349 154.02 131.576 154.327 131.002 154.94C130.429 155.54 130.142 156.407 130.142 157.54V163H128.222V152.4H130.062V153.98C130.449 153.433 130.956 153.02 131.582 152.74C132.209 152.447 132.922 152.3 133.722 152.3C134.549 152.3 135.282 152.467 135.922 152.8C136.562 153.133 137.056 153.62 137.402 154.26C137.802 153.647 138.356 153.167 139.062 152.82C139.782 152.473 140.589 152.3 141.482 152.3ZM158.794 157.76C158.794 157.907 158.78 158.1 158.754 158.34H150.154C150.274 159.273 150.68 160.027 151.374 160.6C152.08 161.16 152.954 161.44 153.994 161.44C155.26 161.44 156.28 161.013 157.054 160.16L158.114 161.4C157.634 161.96 157.034 162.387 156.314 162.68C155.607 162.973 154.814 163.12 153.934 163.12C152.814 163.12 151.82 162.893 150.954 162.44C150.087 161.973 149.414 161.327 148.934 160.5C148.467 159.673 148.234 158.74 148.234 157.7C148.234 156.673 148.46 155.747 148.914 154.92C149.38 154.093 150.014 153.453 150.814 153C151.627 152.533 152.54 152.3 153.554 152.3C154.567 152.3 155.467 152.533 156.254 153C157.054 153.453 157.674 154.093 158.114 154.92C158.567 155.747 158.794 156.693 158.794 157.76ZM153.554 153.92C152.634 153.92 151.86 154.2 151.234 154.76C150.62 155.32 150.26 156.053 150.154 156.96H156.954C156.847 156.067 156.48 155.34 155.854 154.78C155.24 154.207 154.474 153.92 153.554 153.92ZM171.26 148.16V163H169.42V161.32C168.993 161.907 168.453 162.353 167.8 162.66C167.147 162.967 166.427 163.12 165.64 163.12C164.613 163.12 163.693 162.893 162.88 162.44C162.067 161.987 161.427 161.353 160.96 160.54C160.507 159.713 160.28 158.767 160.28 157.7C160.28 156.633 160.507 155.693 160.96 154.88C161.427 154.067 162.067 153.433 162.88 152.98C163.693 152.527 164.613 152.3 165.64 152.3C166.4 152.3 167.1 152.447 167.74 152.74C168.38 153.02 168.913 153.44 169.34 154V148.16H171.26ZM165.8 161.44C166.467 161.44 167.073 161.287 167.62 160.98C168.167 160.66 168.593 160.22 168.9 159.66C169.207 159.087 169.36 158.433 169.36 157.7C169.36 156.967 169.207 156.32 168.9 155.76C168.593 155.187 168.167 154.747 167.62 154.44C167.073 154.133 166.467 153.98 165.8 153.98C165.12 153.98 164.507 154.133 163.96 154.44C163.427 154.747 163 155.187 162.68 155.76C162.373 156.32 162.22 156.967 162.22 157.7C162.22 158.433 162.373 159.087 162.68 159.66C163 160.22 163.427 160.66 163.96 160.98C164.507 161.287 165.12 161.44 165.8 161.44ZM189.864 148.16V163H188.024V161.32C187.597 161.907 187.057 162.353 186.404 162.66C185.75 162.967 185.03 163.12 184.244 163.12C183.217 163.12 182.297 162.893 181.484 162.44C180.67 161.987 180.03 161.353 179.564 160.54C179.11 159.713 178.884 158.767 178.884 157.7C178.884 156.633 179.11 155.693 179.564 154.88C180.03 154.067 180.67 153.433 181.484 152.98C182.297 152.527 183.217 152.3 184.244 152.3C185.004 152.3 185.704 152.447 186.344 152.74C186.984 153.02 187.517 153.44 187.944 154V148.16H189.864ZM184.404 161.44C185.07 161.44 185.677 161.287 186.224 160.98C186.77 160.66 187.197 160.22 187.504 159.66C187.81 159.087 187.964 158.433 187.964 157.7C187.964 156.967 187.81 156.32 187.504 155.76C187.197 155.187 186.77 154.747 186.224 154.44C185.677 154.133 185.07 153.98 184.404 153.98C183.724 153.98 183.11 154.133 182.564 154.44C182.03 154.747 181.604 155.187 181.284 155.76C180.977 156.32 180.824 156.967 180.824 157.7C180.824 158.433 180.977 159.087 181.284 159.66C181.604 160.22 182.03 160.66 182.564 160.98C183.11 161.287 183.724 161.44 184.404 161.44ZM202.877 157.76C202.877 157.907 202.863 158.1 202.837 158.34H194.237C194.357 159.273 194.763 160.027 195.457 160.6C196.163 161.16 197.037 161.44 198.077 161.44C199.343 161.44 200.363 161.013 201.137 160.16L202.197 161.4C201.717 161.96 201.117 162.387 200.397 162.68C199.69 162.973 198.897 163.12 198.017 163.12C196.897 163.12 195.903 162.893 195.037 162.44C194.17 161.973 193.497 161.327 193.017 160.5C192.55 159.673 192.317 158.74 192.317 157.7C192.317 156.673 192.543 155.747 192.997 154.92C193.463 154.093 194.097 153.453 194.897 153C195.71 152.533 196.623 152.3 197.637 152.3C198.65 152.3 199.55 152.533 200.337 153C201.137 153.453 201.757 154.093 202.197 154.92C202.65 155.747 202.877 156.693 202.877 157.76ZM197.637 153.92C196.717 153.92 195.943 154.2 195.317 154.76C194.703 155.32 194.343 156.053 194.237 156.96H201.037C200.93 156.067 200.563 155.34 199.937 154.78C199.323 154.207 198.557 153.92 197.637 153.92ZM209.963 163.12C208.883 163.12 207.916 162.887 207.063 162.42C206.223 161.953 205.563 161.313 205.083 160.5C204.603 159.673 204.363 158.74 204.363 157.7C204.363 156.66 204.603 155.733 205.083 154.92C205.563 154.093 206.223 153.453 207.063 153C207.916 152.533 208.883 152.3 209.963 152.3C210.923 152.3 211.776 152.493 212.523 152.88C213.283 153.267 213.869 153.827 214.283 154.56L212.823 155.5C212.489 154.993 212.076 154.613 211.583 154.36C211.089 154.107 210.543 153.98 209.943 153.98C209.249 153.98 208.623 154.133 208.063 154.44C207.516 154.747 207.083 155.187 206.763 155.76C206.456 156.32 206.303 156.967 206.303 157.7C206.303 158.447 206.456 159.107 206.763 159.68C207.083 160.24 207.516 160.673 208.063 160.98C208.623 161.287 209.249 161.44 209.943 161.44C210.543 161.44 211.089 161.313 211.583 161.06C212.076 160.807 212.489 160.427 212.823 159.92L214.283 160.84C213.869 161.573 213.283 162.14 212.523 162.54C211.776 162.927 210.923 163.12 209.963 163.12ZM216.568 152.4H218.488V163H216.568V152.4ZM217.528 150.36C217.155 150.36 216.842 150.24 216.588 150C216.348 149.76 216.228 149.467 216.228 149.12C216.228 148.773 216.348 148.48 216.588 148.24C216.842 147.987 217.155 147.86 217.528 147.86C217.902 147.86 218.208 147.98 218.448 148.22C218.702 148.447 218.828 148.733 218.828 149.08C218.828 149.44 218.702 149.747 218.448 150C218.208 150.24 217.902 150.36 217.528 150.36ZM224.994 163.12C224.128 163.12 223.294 163.007 222.494 162.78C221.694 162.54 221.068 162.24 220.614 161.88L221.414 160.36C221.881 160.693 222.448 160.96 223.114 161.16C223.781 161.36 224.454 161.46 225.134 161.46C226.814 161.46 227.654 160.98 227.654 160.02C227.654 159.7 227.541 159.447 227.314 159.26C227.088 159.073 226.801 158.94 226.454 158.86C226.121 158.767 225.641 158.667 225.014 158.56C224.161 158.427 223.461 158.273 222.914 158.1C222.381 157.927 221.921 157.633 221.534 157.22C221.148 156.807 220.954 156.227 220.954 155.48C220.954 154.52 221.354 153.753 222.154 153.18C222.954 152.593 224.028 152.3 225.374 152.3C226.081 152.3 226.788 152.387 227.494 152.56C228.201 152.733 228.781 152.967 229.234 153.26L228.414 154.78C227.548 154.22 226.528 153.94 225.354 153.94C224.541 153.94 223.921 154.073 223.494 154.34C223.068 154.607 222.854 154.96 222.854 155.4C222.854 155.747 222.974 156.02 223.214 156.22C223.454 156.42 223.748 156.567 224.094 156.66C224.454 156.753 224.954 156.86 225.594 156.98C226.448 157.127 227.134 157.287 227.654 157.46C228.188 157.62 228.641 157.9 229.014 158.3C229.388 158.7 229.574 159.26 229.574 159.98C229.574 160.94 229.161 161.707 228.334 162.28C227.521 162.84 226.408 163.12 224.994 163.12ZM231.774 152.4H233.694V163H231.774V152.4ZM232.734 150.36C232.361 150.36 232.047 150.24 231.794 150C231.554 149.76 231.434 149.467 231.434 149.12C231.434 148.773 231.554 148.48 231.794 148.24C232.047 147.987 232.361 147.86 232.734 147.86C233.107 147.86 233.414 147.98 233.654 148.22C233.907 148.447 234.034 148.733 234.034 149.08C234.034 149.44 233.907 149.747 233.654 150C233.414 150.24 233.107 150.36 232.734 150.36ZM241.7 163.12C240.647 163.12 239.7 162.887 238.86 162.42C238.02 161.953 237.36 161.313 236.88 160.5C236.413 159.673 236.18 158.74 236.18 157.7C236.18 156.66 236.413 155.733 236.88 154.92C237.36 154.093 238.02 153.453 238.86 153C239.7 152.533 240.647 152.3 241.7 152.3C242.753 152.3 243.693 152.533 244.52 153C245.36 153.453 246.013 154.093 246.48 154.92C246.96 155.733 247.2 156.66 247.2 157.7C247.2 158.74 246.96 159.673 246.48 160.5C246.013 161.313 245.36 161.953 244.52 162.42C243.693 162.887 242.753 163.12 241.7 163.12ZM241.7 161.44C242.38 161.44 242.987 161.287 243.52 160.98C244.067 160.66 244.493 160.22 244.8 159.66C245.107 159.087 245.26 158.433 245.26 157.7C245.26 156.967 245.107 156.32 244.8 155.76C244.493 155.187 244.067 154.747 243.52 154.44C242.987 154.133 242.38 153.98 241.7 153.98C241.02 153.98 240.407 154.133 239.86 154.44C239.327 154.747 238.9 155.187 238.58 155.76C238.273 156.32 238.12 156.967 238.12 157.7C238.12 158.433 238.273 159.087 238.58 159.66C238.9 160.22 239.327 160.66 239.86 160.98C240.407 161.287 241.02 161.44 241.7 161.44ZM255.315 152.3C256.662 152.3 257.728 152.693 258.515 153.48C259.315 154.253 259.715 155.393 259.715 156.9V163H257.795V157.12C257.795 156.093 257.548 155.32 257.055 154.8C256.562 154.28 255.855 154.02 254.935 154.02C253.895 154.02 253.075 154.327 252.475 154.94C251.875 155.54 251.575 156.407 251.575 157.54V163H249.655V152.4H251.495V154C251.882 153.453 252.402 153.033 253.055 152.74C253.722 152.447 254.475 152.3 255.315 152.3ZM266.108 163.12C265.242 163.12 264.408 163.007 263.608 162.78C262.808 162.54 262.182 162.24 261.728 161.88L262.528 160.36C262.995 160.693 263.562 160.96 264.228 161.16C264.895 161.36 265.568 161.46 266.248 161.46C267.928 161.46 268.768 160.98 268.768 160.02C268.768 159.7 268.655 159.447 268.428 159.26C268.202 159.073 267.915 158.94 267.568 158.86C267.235 158.767 266.755 158.667 266.128 158.56C265.275 158.427 264.575 158.273 264.028 158.1C263.495 157.927 263.035 157.633 262.648 157.22C262.262 156.807 262.068 156.227 262.068 155.48C262.068 154.52 262.468 153.753 263.268 153.18C264.068 152.593 265.142 152.3 266.488 152.3C267.195 152.3 267.902 152.387 268.608 152.56C269.315 152.733 269.895 152.967 270.348 153.26L269.528 154.78C268.662 154.22 267.642 153.94 266.468 153.94C265.655 153.94 265.035 154.073 264.608 154.34C264.182 154.607 263.968 154.96 263.968 155.4C263.968 155.747 264.088 156.02 264.328 156.22C264.568 156.42 264.862 156.567 265.208 156.66C265.568 156.753 266.068 156.86 266.708 156.98C267.562 157.127 268.248 157.287 268.768 157.46C269.302 157.62 269.755 157.9 270.128 158.3C270.502 158.7 270.688 159.26 270.688 159.98C270.688 160.94 270.275 161.707 269.448 162.28C268.635 162.84 267.522 163.12 266.108 163.12ZM273.348 163.12C272.975 163.12 272.655 162.993 272.388 162.74C272.121 162.473 271.988 162.14 271.988 161.74C271.988 161.353 272.121 161.033 272.388 160.78C272.655 160.513 272.975 160.38 273.348 160.38C273.721 160.38 274.035 160.507 274.288 160.76C274.541 161.013 274.668 161.34 274.668 161.74C274.668 162.14 274.535 162.473 274.268 162.74C274.015 162.993 273.708 163.12 273.348 163.12ZM23.1 180H29C30.48 180 31.7933 180.293 32.94 180.88C34.0867 181.467 34.9733 182.293 35.6 183.36C36.24 184.413 36.56 185.627 36.56 187C36.56 188.373 36.24 189.593 35.6 190.66C34.9733 191.713 34.0867 192.533 32.94 193.12C31.7933 193.707 30.48 194 29 194H23.1V180ZM28.88 192.26C30.0133 192.26 31.0067 192.04 31.86 191.6C32.7267 191.16 33.3933 190.547 33.86 189.76C34.3267 188.96 34.56 188.04 34.56 187C34.56 185.96 34.3267 185.047 33.86 184.26C33.3933 183.46 32.7267 182.84 31.86 182.4C31.0067 181.96 30.0133 181.74 28.88 181.74H25.1V192.26H28.88ZM48.7234 188.76C48.7234 188.907 48.7101 189.1 48.6834 189.34H40.0834C40.2034 190.273 40.6101 191.027 41.3034 191.6C42.0101 192.16 42.8834 192.44 43.9234 192.44C45.1901 192.44 46.2101 192.013 46.9834 191.16L48.0434 192.4C47.5634 192.96 46.9634 193.387 46.2434 193.68C45.5368 193.973 44.7434 194.12 43.8634 194.12C42.7434 194.12 41.7501 193.893 40.8834 193.44C40.0168 192.973 39.3434 192.327 38.8634 191.5C38.3968 190.673 38.1634 189.74 38.1634 188.7C38.1634 187.673 38.3901 186.747 38.8434 185.92C39.3101 185.093 39.9434 184.453 40.7434 184C41.5568 183.533 42.4701 183.3 43.4834 183.3C44.4968 183.3 45.3968 183.533 46.1834 184C46.9834 184.453 47.6034 185.093 48.0434 185.92C48.4968 186.747 48.7234 187.693 48.7234 188.76ZM43.4834 184.92C42.5634 184.92 41.7901 185.2 41.1634 185.76C40.5501 186.32 40.1901 187.053 40.0834 187.96H46.8834C46.7768 187.067 46.4101 186.34 45.7834 185.78C45.1701 185.207 44.4034 184.92 43.4834 184.92ZM54.2295 194.12C53.3629 194.12 52.5295 194.007 51.7295 193.78C50.9295 193.54 50.3029 193.24 49.8495 192.88L50.6495 191.36C51.1162 191.693 51.6829 191.96 52.3495 192.16C53.0162 192.36 53.6895 192.46 54.3695 192.46C56.0495 192.46 56.8895 191.98 56.8895 191.02C56.8895 190.7 56.7762 190.447 56.5495 190.26C56.3229 190.073 56.0362 189.94 55.6895 189.86C55.3562 189.767 54.8762 189.667 54.2495 189.56C53.3962 189.427 52.6962 189.273 52.1495 189.1C51.6162 188.927 51.1562 188.633 50.7695 188.22C50.3829 187.807 50.1895 187.227 50.1895 186.48C50.1895 185.52 50.5895 184.753 51.3895 184.18C52.1895 183.593 53.2629 183.3 54.6095 183.3C55.3162 183.3 56.0229 183.387 56.7295 183.56C57.4362 183.733 58.0162 183.967 58.4695 184.26L57.6495 185.78C56.7829 185.22 55.7629 184.94 54.5895 184.94C53.7762 184.94 53.1562 185.073 52.7295 185.34C52.3029 185.607 52.0895 185.96 52.0895 186.4C52.0895 186.747 52.2095 187.02 52.4495 187.22C52.6895 187.42 52.9829 187.567 53.3295 187.66C53.6895 187.753 54.1895 187.86 54.8295 187.98C55.6829 188.127 56.3695 188.287 56.8895 188.46C57.4229 188.62 57.8762 188.9 58.2495 189.3C58.6229 189.7 58.8095 190.26 58.8095 190.98C58.8095 191.94 58.3962 192.707 57.5695 193.28C56.7562 193.84 55.6429 194.12 54.2295 194.12ZM61.0091 183.4H62.9291V194H61.0091V183.4ZM61.9691 181.36C61.5957 181.36 61.2824 181.24 61.0291 181C60.7891 180.76 60.6691 180.467 60.6691 180.12C60.6691 179.773 60.7891 179.48 61.0291 179.24C61.2824 178.987 61.5957 178.86 61.9691 178.86C62.3424 178.86 62.6491 178.98 62.8891 179.22C63.1424 179.447 63.2691 179.733 63.2691 180.08C63.2691 180.44 63.1424 180.747 62.8891 181C62.6491 181.24 62.3424 181.36 61.9691 181.36ZM76.535 183.4V192.56C76.535 194.413 76.075 195.78 75.155 196.66C74.235 197.553 72.8617 198 71.035 198C70.035 198 69.0817 197.86 68.175 197.58C67.2683 197.313 66.535 196.927 65.975 196.42L66.895 194.94C67.3883 195.367 67.995 195.7 68.715 195.94C69.4483 196.193 70.2017 196.32 70.975 196.32C72.215 196.32 73.1283 196.027 73.715 195.44C74.315 194.853 74.615 193.96 74.615 192.76V191.92C74.1617 192.467 73.6017 192.88 72.935 193.16C72.2817 193.427 71.5683 193.56 70.795 193.56C69.7817 193.56 68.8617 193.347 68.035 192.92C67.2217 192.48 66.5817 191.873 66.115 191.1C65.6483 190.313 65.415 189.42 65.415 188.42C65.415 187.42 65.6483 186.533 66.115 185.76C66.5817 184.973 67.2217 184.367 68.035 183.94C68.8617 183.513 69.7817 183.3 70.795 183.3C71.595 183.3 72.335 183.447 73.015 183.74C73.7083 184.033 74.275 184.467 74.715 185.04V183.4H76.535ZM71.015 191.88C71.7083 191.88 72.3283 191.733 72.875 191.44C73.435 191.147 73.8683 190.74 74.175 190.22C74.495 189.687 74.655 189.087 74.655 188.42C74.655 187.393 74.315 186.567 73.635 185.94C72.955 185.3 72.0817 184.98 71.015 184.98C69.935 184.98 69.055 185.3 68.375 185.94C67.695 186.567 67.355 187.393 67.355 188.42C67.355 189.087 67.5083 189.687 67.815 190.22C68.135 190.74 68.5683 191.147 69.115 191.44C69.675 191.733 70.3083 191.88 71.015 191.88ZM85.6636 183.3C87.0103 183.3 88.0769 183.693 88.8636 184.48C89.6636 185.253 90.0636 186.393 90.0636 187.9V194H88.1436V188.12C88.1436 187.093 87.8969 186.32 87.4036 185.8C86.9103 185.28 86.2036 185.02 85.2836 185.02C84.2436 185.02 83.4236 185.327 82.8236 185.94C82.2236 186.54 81.9236 187.407 81.9236 188.54V194H80.0036V183.4H81.8436V185C82.2303 184.453 82.7503 184.033 83.4036 183.74C84.0703 183.447 84.8236 183.3 85.6636 183.3ZM102.448 183.3C103.915 183.3 105.035 183.66 105.808 184.38C106.595 185.1 106.988 186.173 106.988 187.6V194H105.168V192.6C104.848 193.093 104.388 193.473 103.788 193.74C103.201 193.993 102.501 194.12 101.688 194.12C100.501 194.12 99.548 193.833 98.828 193.26C98.1213 192.687 97.768 191.933 97.768 191C97.768 190.067 98.108 189.32 98.788 188.76C99.468 188.187 100.548 187.9 102.028 187.9H105.068V187.52C105.068 186.693 104.828 186.06 104.348 185.62C103.868 185.18 103.161 184.96 102.228 184.96C101.601 184.96 100.988 185.067 100.388 185.28C99.788 185.48 99.2813 185.753 98.868 186.1L98.068 184.66C98.6146 184.22 99.268 183.887 100.028 183.66C100.788 183.42 101.595 183.3 102.448 183.3ZM102.008 192.64C102.741 192.64 103.375 192.48 103.908 192.16C104.441 191.827 104.828 191.36 105.068 190.76V189.28H102.108C100.481 189.28 99.668 189.827 99.668 190.92C99.668 191.453 99.8746 191.873 100.288 192.18C100.701 192.487 101.275 192.64 102.008 192.64ZM116.001 183.3C117.348 183.3 118.414 183.693 119.201 184.48C120.001 185.253 120.401 186.393 120.401 187.9V194H118.481V188.12C118.481 187.093 118.234 186.32 117.741 185.8C117.248 185.28 116.541 185.02 115.621 185.02C114.581 185.02 113.761 185.327 113.161 185.94C112.561 186.54 112.261 187.407 112.261 188.54V194H110.341V183.4H112.181V185C112.568 184.453 113.088 184.033 113.741 183.74C114.408 183.447 115.161 183.3 116.001 183.3ZM133.813 179.16V194H131.973V192.32C131.546 192.907 131.006 193.353 130.353 193.66C129.7 193.967 128.98 194.12 128.193 194.12C127.166 194.12 126.246 193.893 125.433 193.44C124.62 192.987 123.98 192.353 123.513 191.54C123.06 190.713 122.833 189.767 122.833 188.7C122.833 187.633 123.06 186.693 123.513 185.88C123.98 185.067 124.62 184.433 125.433 183.98C126.246 183.527 127.166 183.3 128.193 183.3C128.953 183.3 129.653 183.447 130.293 183.74C130.933 184.02 131.466 184.44 131.893 185V179.16H133.813ZM128.353 192.44C129.02 192.44 129.626 192.287 130.173 191.98C130.72 191.66 131.146 191.22 131.453 190.66C131.76 190.087 131.913 189.433 131.913 188.7C131.913 187.967 131.76 187.32 131.453 186.76C131.146 186.187 130.72 185.747 130.173 185.44C129.626 185.133 129.02 184.98 128.353 184.98C127.673 184.98 127.06 185.133 126.513 185.44C125.98 185.747 125.553 186.187 125.233 186.76C124.926 187.32 124.773 187.967 124.773 188.7C124.773 189.433 124.926 190.087 125.233 190.66C125.553 191.22 125.98 191.66 126.513 191.98C127.06 192.287 127.673 192.44 128.353 192.44ZM148.037 183.3C149.064 183.3 149.984 183.527 150.797 183.98C151.61 184.433 152.244 185.067 152.697 185.88C153.164 186.693 153.397 187.633 153.397 188.7C153.397 189.767 153.164 190.713 152.697 191.54C152.244 192.353 151.61 192.987 150.797 193.44C149.984 193.893 149.064 194.12 148.037 194.12C147.25 194.12 146.53 193.967 145.877 193.66C145.224 193.353 144.684 192.907 144.257 192.32V194H142.417V179.16H144.337V185C144.764 184.44 145.297 184.02 145.937 183.74C146.577 183.447 147.277 183.3 148.037 183.3ZM147.877 192.44C148.557 192.44 149.164 192.287 149.697 191.98C150.244 191.66 150.67 191.22 150.977 190.66C151.297 190.087 151.457 189.433 151.457 188.7C151.457 187.967 151.297 187.32 150.977 186.76C150.67 186.187 150.244 185.747 149.697 185.44C149.164 185.133 148.557 184.98 147.877 184.98C147.21 184.98 146.604 185.133 146.057 185.44C145.51 185.747 145.084 186.187 144.777 186.76C144.47 187.32 144.317 187.967 144.317 188.7C144.317 189.433 144.47 190.087 144.777 190.66C145.084 191.22 145.51 191.66 146.057 191.98C146.604 192.287 147.21 192.44 147.877 192.44ZM165.73 183.4V194H163.91V192.4C163.523 192.947 163.01 193.373 162.37 193.68C161.743 193.973 161.056 194.12 160.31 194.12C158.896 194.12 157.783 193.733 156.97 192.96C156.156 192.173 155.75 191.02 155.75 189.5V183.4H157.67V189.28C157.67 190.307 157.916 191.087 158.41 191.62C158.903 192.14 159.61 192.4 160.53 192.4C161.543 192.4 162.343 192.093 162.93 191.48C163.516 190.867 163.81 190 163.81 188.88V183.4H165.73ZM169.185 183.4H171.105V194H169.185V183.4ZM170.145 181.36C169.772 181.36 169.458 181.24 169.205 181C168.965 180.76 168.845 180.467 168.845 180.12C168.845 179.773 168.965 179.48 169.205 179.24C169.458 178.987 169.772 178.86 170.145 178.86C170.518 178.86 170.825 178.98 171.065 179.22C171.318 179.447 171.445 179.733 171.445 180.08C171.445 180.44 171.318 180.747 171.065 181C170.825 181.24 170.518 181.36 170.145 181.36ZM174.571 179.16H176.491V194H174.571V179.16ZM189.957 179.16V194H188.117V192.32C187.69 192.907 187.15 193.353 186.497 193.66C185.843 193.967 185.123 194.12 184.337 194.12C183.31 194.12 182.39 193.893 181.577 193.44C180.763 192.987 180.123 192.353 179.657 191.54C179.203 190.713 178.977 189.767 178.977 188.7C178.977 187.633 179.203 186.693 179.657 185.88C180.123 185.067 180.763 184.433 181.577 183.98C182.39 183.527 183.31 183.3 184.337 183.3C185.097 183.3 185.797 183.447 186.437 183.74C187.077 184.02 187.61 184.44 188.037 185V179.16H189.957ZM184.497 192.44C185.163 192.44 185.77 192.287 186.317 191.98C186.863 191.66 187.29 191.22 187.597 190.66C187.903 190.087 188.057 189.433 188.057 188.7C188.057 187.967 187.903 187.32 187.597 186.76C187.29 186.187 186.863 185.747 186.317 185.44C185.77 185.133 185.163 184.98 184.497 184.98C183.817 184.98 183.203 185.133 182.657 185.44C182.123 185.747 181.697 186.187 181.377 186.76C181.07 187.32 180.917 187.967 180.917 188.7C180.917 189.433 181.07 190.087 181.377 190.66C181.697 191.22 182.123 191.66 182.657 191.98C183.203 192.287 183.817 192.44 184.497 192.44ZM204.181 183.3C205.207 183.3 206.127 183.527 206.941 183.98C207.754 184.433 208.387 185.067 208.841 185.88C209.307 186.693 209.541 187.633 209.541 188.7C209.541 189.767 209.307 190.713 208.841 191.54C208.387 192.353 207.754 192.987 206.941 193.44C206.127 193.893 205.207 194.12 204.181 194.12C203.394 194.12 202.674 193.967 202.021 193.66C201.367 193.353 200.827 192.907 200.401 192.32V194H198.561V179.16H200.481V185C200.907 184.44 201.441 184.02 202.081 183.74C202.721 183.447 203.421 183.3 204.181 183.3ZM204.021 192.44C204.701 192.44 205.307 192.287 205.841 191.98C206.387 191.66 206.814 191.22 207.121 190.66C207.441 190.087 207.601 189.433 207.601 188.7C207.601 187.967 207.441 187.32 207.121 186.76C206.814 186.187 206.387 185.747 205.841 185.44C205.307 185.133 204.701 184.98 204.021 184.98C203.354 184.98 202.747 185.133 202.201 185.44C201.654 185.747 201.227 186.187 200.921 186.76C200.614 187.32 200.461 187.967 200.461 188.7C200.461 189.433 200.614 190.087 200.921 190.66C201.227 191.22 201.654 191.66 202.201 191.98C202.747 192.287 203.354 192.44 204.021 192.44ZM221.573 188.76C221.573 188.907 221.56 189.1 221.533 189.34H212.933C213.053 190.273 213.46 191.027 214.153 191.6C214.86 192.16 215.733 192.44 216.773 192.44C218.04 192.44 219.06 192.013 219.833 191.16L220.893 192.4C220.413 192.96 219.813 193.387 219.093 193.68C218.387 193.973 217.593 194.12 216.713 194.12C215.593 194.12 214.6 193.893 213.733 193.44C212.867 192.973 212.193 192.327 211.713 191.5C211.247 190.673 211.013 189.74 211.013 188.7C211.013 187.673 211.24 186.747 211.693 185.92C212.16 185.093 212.793 184.453 213.593 184C214.407 183.533 215.32 183.3 216.333 183.3C217.347 183.3 218.247 183.533 219.033 184C219.833 184.453 220.453 185.093 220.893 185.92C221.347 186.747 221.573 187.693 221.573 188.76ZM216.333 184.92C215.413 184.92 214.64 185.2 214.013 185.76C213.4 186.32 213.04 187.053 212.933 187.96H219.733C219.627 187.067 219.26 186.34 218.633 185.78C218.02 185.207 217.253 184.92 216.333 184.92ZM230 193.38C229.72 193.62 229.373 193.807 228.96 193.94C228.546 194.06 228.12 194.12 227.68 194.12C226.613 194.12 225.786 193.833 225.2 193.26C224.613 192.687 224.32 191.867 224.32 190.8V184.98H222.52V183.4H224.32V181.08H226.24V183.4H229.28V184.98H226.24V190.72C226.24 191.293 226.38 191.733 226.66 192.04C226.953 192.347 227.366 192.5 227.9 192.5C228.486 192.5 228.986 192.333 229.4 192L230 193.38ZM237.827 193.38C237.547 193.62 237.2 193.807 236.787 193.94C236.374 194.06 235.947 194.12 235.507 194.12C234.44 194.12 233.614 193.833 233.027 193.26C232.44 192.687 232.147 191.867 232.147 190.8V184.98H230.347V183.4H232.147V181.08H234.067V183.4H237.107V184.98H234.067V190.72C234.067 191.293 234.207 191.733 234.487 192.04C234.78 192.347 235.194 192.5 235.727 192.5C236.314 192.5 236.814 192.333 237.227 192L237.827 193.38ZM249.177 188.76C249.177 188.907 249.163 189.1 249.137 189.34H240.537C240.657 190.273 241.063 191.027 241.757 191.6C242.463 192.16 243.337 192.44 244.377 192.44C245.643 192.44 246.663 192.013 247.437 191.16L248.497 192.4C248.017 192.96 247.417 193.387 246.697 193.68C245.99 193.973 245.197 194.12 244.317 194.12C243.197 194.12 242.203 193.893 241.337 193.44C240.47 192.973 239.797 192.327 239.317 191.5C238.85 190.673 238.617 189.74 238.617 188.7C238.617 187.673 238.843 186.747 239.297 185.92C239.763 185.093 240.397 184.453 241.197 184C242.01 183.533 242.923 183.3 243.937 183.3C244.95 183.3 245.85 183.533 246.637 184C247.437 184.453 248.057 185.093 248.497 185.92C248.95 186.747 249.177 187.693 249.177 188.76ZM243.937 184.92C243.017 184.92 242.243 185.2 241.617 185.76C241.003 186.32 240.643 187.053 240.537 187.96H247.337C247.23 187.067 246.863 186.34 246.237 185.78C245.623 185.207 244.857 184.92 243.937 184.92ZM253.483 185.18C253.816 184.567 254.309 184.1 254.963 183.78C255.616 183.46 256.409 183.3 257.343 183.3V185.16C257.236 185.147 257.089 185.14 256.903 185.14C255.863 185.14 255.043 185.453 254.443 186.08C253.856 186.693 253.563 187.573 253.563 188.72V194H251.643V183.4H253.483V185.18ZM274.017 190.5H266.577L265.037 194H262.977L269.317 180H271.297L277.657 194H275.557L274.017 190.5ZM273.317 188.9L270.297 182.04L267.277 188.9H273.317ZM285.005 180C286.819 180 288.245 180.433 289.285 181.3C290.325 182.167 290.845 183.36 290.845 184.88C290.845 186.4 290.325 187.593 289.285 188.46C288.245 189.327 286.819 189.76 285.005 189.76H281.545V194H279.545V180H285.005ZM284.945 188.02C286.212 188.02 287.179 187.753 287.845 187.22C288.512 186.673 288.845 185.893 288.845 184.88C288.845 183.867 288.512 183.093 287.845 182.56C287.179 182.013 286.212 181.74 284.945 181.74H281.545V188.02H284.945ZM293.584 180H295.584V194H293.584V180ZM302.335 194.12C301.468 194.12 300.635 194.007 299.835 193.78C299.035 193.54 298.408 193.24 297.955 192.88L298.755 191.36C299.222 191.693 299.788 191.96 300.455 192.16C301.122 192.36 301.795 192.46 302.475 192.46C304.155 192.46 304.995 191.98 304.995 191.02C304.995 190.7 304.882 190.447 304.655 190.26C304.428 190.073 304.142 189.94 303.795 189.86C303.462 189.767 302.982 189.667 302.355 189.56C301.502 189.427 300.802 189.273 300.255 189.1C299.722 188.927 299.262 188.633 298.875 188.22C298.488 187.807 298.295 187.227 298.295 186.48C298.295 185.52 298.695 184.753 299.495 184.18C300.295 183.593 301.368 183.3 302.715 183.3C303.422 183.3 304.128 183.387 304.835 183.56C305.542 183.733 306.122 183.967 306.575 184.26L305.755 185.78C304.888 185.22 303.868 184.94 302.695 184.94C301.882 184.94 301.262 185.073 300.835 185.34C300.408 185.607 300.195 185.96 300.195 186.4C300.195 186.747 300.315 187.02 300.555 187.22C300.795 187.42 301.088 187.567 301.435 187.66C301.795 187.753 302.295 187.86 302.935 187.98C303.788 188.127 304.475 188.287 304.995 188.46C305.528 188.62 305.982 188.9 306.355 189.3C306.728 189.7 306.915 190.26 306.915 190.98C306.915 191.94 306.502 192.707 305.675 193.28C304.862 193.84 303.748 194.12 302.335 194.12ZM309.575 194.12C309.201 194.12 308.881 193.993 308.615 193.74C308.348 193.473 308.215 193.14 308.215 192.74C308.215 192.353 308.348 192.033 308.615 191.78C308.881 191.513 309.201 191.38 309.575 191.38C309.948 191.38 310.261 191.507 310.515 191.76C310.768 192.013 310.895 192.34 310.895 192.74C310.895 193.14 310.761 193.473 310.495 193.74C310.241 193.993 309.935 194.12 309.575 194.12Z" fill="black"/>
</svg>
