<svg width="420" height="595" viewBox="0 0 420 595" fill="none" xmlns="http://www.w3.org/2000/svg">
<g clip-path="url(#clip0_1_2)">
<rect width="420" height="595" fill="#DBECDD"/>
<circle cx="135" cy="352" r="100" fill="#DDDEA3"/>
<path d="M34.944 43.428H26.34V66H24.144V43.428H15.54V41.376H34.944V43.428ZM51.1201 66C50.7361 65.28 50.4841 64.476 50.3641 63.588C50.2441 62.676 50.1841 61.872 50.1841 61.176C50.1841 60.6 50.1961 60.06 50.2201 59.556C50.2441 59.052 50.2681 58.524 50.2921 57.972C50.3401 57.396 50.3761 56.784 50.4001 56.136C50.4481 55.488 50.4721 54.744 50.4721 53.904C50.4721 52.416 50.1361 51.324 49.4641 50.628C48.7921 49.932 47.7721 49.584 46.4041 49.584C45.1081 49.584 44.0161 49.908 43.1281 50.556C42.2401 51.18 41.3761 52.068 40.5361 53.22V66H38.5561V39.864H40.5361V50.88C41.3041 49.8 42.1801 49.008 43.1641 48.504C44.1721 47.976 45.2521 47.712 46.4041 47.712C48.5161 47.712 50.0521 48.216 51.0121 49.224C51.9721 50.232 52.4521 51.66 52.4521 53.508C52.4521 54.372 52.4281 55.164 52.3801 55.884C52.3561 56.58 52.3201 57.24 52.2721 57.864C52.2481 58.488 52.2241 59.088 52.2001 59.664C52.1761 60.24 52.1641 60.816 52.1641 61.392C52.1641 62.184 52.2241 62.94 52.3441 63.66C52.4641 64.38 52.6921 65.16 53.0281 66H51.1201ZM59.3278 58.8C59.5438 60.672 60.1318 62.088 61.0918 63.048C62.0758 64.008 63.5038 64.488 65.3758 64.488C66.3838 64.488 67.3438 64.32 68.2558 63.984C69.1678 63.648 70.0798 63.24 70.9918 62.76L71.9278 64.272C71.0878 64.848 70.1038 65.34 68.9758 65.748C67.8718 66.156 66.6718 66.36 65.3758 66.36C62.6638 66.36 60.6118 65.568 59.2198 63.984C57.8518 62.376 57.1678 60.084 57.1678 57.108C57.1678 55.86 57.3478 54.672 57.7078 53.544C58.0918 52.416 58.6198 51.42 59.2918 50.556C59.9878 49.692 60.8158 49.008 61.7758 48.504C62.7358 47.976 63.8038 47.712 64.9798 47.712C65.8678 47.712 66.7078 47.844 67.4998 48.108C68.2918 48.348 68.9758 48.708 69.5518 49.188C70.1518 49.644 70.6198 50.22 70.9558 50.916C71.3158 51.588 71.4958 52.344 71.4958 53.184C71.4958 54.24 71.2678 55.128 70.8118 55.848C70.3558 56.568 69.7558 57.144 69.0118 57.576C68.2918 58.008 67.4518 58.32 66.4918 58.512C65.5558 58.704 64.5838 58.8 63.5758 58.8H59.3278ZM64.9798 49.476C64.1158 49.476 63.3238 49.692 62.6038 50.124C61.9078 50.556 61.3078 51.12 60.8038 51.816C60.2998 52.512 59.9038 53.304 59.6158 54.192C59.3518 55.08 59.2198 55.992 59.2198 56.928H63.5758C64.7998 56.928 65.7958 56.82 66.5638 56.604C67.3318 56.364 67.9318 56.064 68.3638 55.704C68.7958 55.344 69.0838 54.948 69.2278 54.516C69.3718 54.06 69.4438 53.616 69.4438 53.184C69.4438 52.056 69.0238 51.156 68.1838 50.484C67.3678 49.812 66.2998 49.476 64.9798 49.476ZM101.892 66H87.9239V41.376H90.1199V63.948H101.892V66ZM109.809 66.36C108.993 66.36 108.225 66.252 107.505 66.036C106.809 65.82 106.197 65.496 105.669 65.064C105.165 64.632 104.769 64.092 104.481 63.444C104.193 62.796 104.049 62.052 104.049 61.212C104.049 60.204 104.265 59.364 104.697 58.692C105.153 58.02 105.741 57.48 106.461 57.072C107.181 56.64 107.985 56.34 108.873 56.172C109.785 56.004 110.709 55.92 111.645 55.92H115.137V53.904C115.137 52.416 114.837 51.324 114.237 50.628C113.637 49.932 112.689 49.584 111.393 49.584C110.433 49.584 109.461 49.788 108.477 50.196C107.493 50.604 106.689 51.048 106.065 51.528L105.093 50.016C105.789 49.392 106.701 48.852 107.829 48.396C108.981 47.94 110.169 47.712 111.393 47.712C113.409 47.712 114.861 48.228 115.749 49.26C116.661 50.268 117.117 51.684 117.117 53.508V60.816C117.117 62.664 117.585 64.092 118.521 65.1L117.297 66.288C116.793 65.904 116.397 65.472 116.109 64.992C115.821 64.488 115.593 63.96 115.425 63.408C114.969 64.32 114.273 65.04 113.337 65.568C112.401 66.096 111.225 66.36 109.809 66.36ZM109.809 64.488C110.529 64.488 111.201 64.392 111.825 64.2C112.449 63.984 113.001 63.684 113.481 63.3C113.985 62.916 114.381 62.436 114.669 61.86C114.957 61.284 115.113 60.624 115.137 59.88V57.756H111.645C110.973 57.756 110.301 57.804 109.629 57.9C108.981 57.972 108.393 58.14 107.865 58.404C107.337 58.644 106.905 58.992 106.569 59.448C106.257 59.904 106.101 60.492 106.101 61.212C106.101 62.412 106.425 63.264 107.073 63.768C107.721 64.248 108.633 64.488 109.809 64.488ZM136.132 66C135.748 65.28 135.496 64.476 135.376 63.588C135.256 62.676 135.196 61.872 135.196 61.176C135.196 60.6 135.208 60.06 135.232 59.556C135.256 59.052 135.28 58.524 135.304 57.972C135.352 57.396 135.388 56.784 135.412 56.136C135.46 55.488 135.484 54.744 135.484 53.904C135.484 52.416 135.148 51.324 134.476 50.628C133.804 49.932 132.784 49.584 131.416 49.584C130.12 49.584 129.028 49.908 128.14 50.556C127.252 51.18 126.388 52.068 125.548 53.22V53.292V66H123.568V53.292C123.568 52.332 123.448 51.504 123.208 50.808C122.968 50.112 122.608 49.512 122.128 49.008L123.352 47.82C123.928 48.228 124.372 48.732 124.684 49.332C124.996 49.908 125.212 50.508 125.332 51.132C126.124 49.98 127.024 49.128 128.032 48.576C129.064 48 130.192 47.712 131.416 47.712C133.528 47.712 135.064 48.216 136.024 49.224C136.984 50.232 137.464 51.66 137.464 53.508C137.464 54.372 137.44 55.164 137.392 55.884C137.368 56.58 137.332 57.24 137.284 57.864C137.26 58.488 137.236 59.088 137.212 59.664C137.188 60.24 137.176 60.816 137.176 61.392C137.176 62.184 137.236 62.94 137.356 63.66C137.476 64.38 137.704 65.16 138.04 66H136.132ZM140.916 62.004C140.916 61.38 141.048 60.828 141.312 60.348C141.6 59.844 141.972 59.424 142.428 59.088C142.908 58.752 143.472 58.488 144.12 58.296C144.768 58.104 145.476 57.996 146.244 57.972C145.38 56.916 144.948 55.596 144.948 54.012C144.948 53.028 145.116 52.152 145.452 51.384C145.788 50.592 146.256 49.932 146.856 49.404C147.456 48.852 148.164 48.432 148.98 48.144C149.82 47.856 150.732 47.712 151.716 47.712C152.172 47.712 152.604 47.748 153.012 47.82C153.42 47.868 153.816 47.952 154.2 48.072H160.14V49.908L156.864 49.692C157.368 50.22 157.764 50.844 158.052 51.564C158.34 52.284 158.484 53.1 158.484 54.012C158.484 54.996 158.316 55.872 157.98 56.64C157.644 57.408 157.176 58.068 156.576 58.62C155.976 59.148 155.256 59.556 154.416 59.844C153.6 60.132 152.7 60.276 151.716 60.276C150.372 60.276 149.196 60.024 148.188 59.52C147.996 59.496 147.804 59.484 147.612 59.484C147.42 59.46 147.216 59.448 147 59.448C146.52 59.448 146.04 59.484 145.56 59.556C145.08 59.628 144.636 59.76 144.228 59.952C143.844 60.144 143.52 60.396 143.256 60.708C143.016 61.02 142.896 61.416 142.896 61.896C142.896 62.376 143.004 62.772 143.22 63.084C143.436 63.372 143.736 63.6 144.12 63.768C144.504 63.912 144.96 64.008 145.488 64.056C146.04 64.104 146.628 64.128 147.252 64.128C147.996 64.128 148.788 64.116 149.628 64.092C150.468 64.044 151.332 64.02 152.22 64.02C153.228 64.02 154.224 64.092 155.208 64.236C156.216 64.356 157.116 64.608 157.908 64.992C158.7 65.352 159.336 65.88 159.816 66.576C160.296 67.272 160.536 68.172 160.536 69.276C160.536 70.428 160.272 71.376 159.744 72.12C159.216 72.888 158.532 73.5 157.692 73.956C156.852 74.436 155.904 74.772 154.848 74.964C153.792 75.156 152.736 75.252 151.68 75.252C150.624 75.252 149.58 75.156 148.548 74.964C147.54 74.772 146.628 74.436 145.812 73.956C144.996 73.5 144.336 72.888 143.832 72.12C143.328 71.352 143.076 70.404 143.076 69.276C143.076 68.508 143.088 67.764 143.112 67.044C143.16 66.324 143.208 65.76 143.256 65.352C142.56 65.064 141.996 64.656 141.564 64.128C141.132 63.6 140.916 62.892 140.916 62.004ZM147.828 66.036C147.372 66.036 146.916 66.024 146.46 66C146.028 65.976 145.596 65.928 145.164 65.856C145.14 66.048 145.116 66.432 145.092 67.008C145.068 67.584 145.056 68.34 145.056 69.276C145.056 70.596 145.608 71.604 146.712 72.3C147.84 73.02 149.496 73.38 151.68 73.38C152.472 73.38 153.264 73.32 154.056 73.2C154.872 73.104 155.616 72.9 156.288 72.588C156.96 72.276 157.5 71.856 157.908 71.328C158.34 70.8 158.556 70.116 158.556 69.276C158.556 68.556 158.364 67.968 157.98 67.512C157.62 67.08 157.14 66.744 156.54 66.504C155.94 66.288 155.244 66.132 154.452 66.036C153.66 65.964 152.856 65.928 152.04 65.928C151.44 65.928 150.78 65.952 150.06 66C149.34 66.024 148.596 66.036 147.828 66.036ZM151.68 49.584C150.216 49.584 149.052 49.98 148.188 50.772C147.348 51.564 146.928 52.632 146.928 53.976C146.928 55.32 147.348 56.388 148.188 57.18C149.052 57.972 150.216 58.368 151.68 58.368C153.12 58.368 154.272 57.972 155.136 57.18C156 56.388 156.432 55.32 156.432 53.976C156.432 52.632 156 51.564 155.136 50.772C154.272 49.98 153.12 49.584 151.68 49.584ZM177.522 66.288C176.922 65.856 176.466 65.352 176.154 64.776C175.866 64.176 175.662 63.54 175.542 62.868C174.03 65.196 172.05 66.36 169.602 66.36C167.514 66.36 166.014 65.856 165.102 64.848C164.19 63.84 163.734 62.412 163.734 60.564C163.734 59.7 163.746 58.92 163.77 58.224C163.794 57.504 163.818 56.832 163.842 56.208C163.89 55.584 163.926 54.984 163.95 54.408C163.998 53.832 164.022 53.256 164.022 52.68C164.022 51.984 163.962 51.276 163.842 50.556C163.746 49.836 163.542 49.128 163.23 48.432L164.958 47.856C165.174 48.192 165.342 48.576 165.462 49.008C165.606 49.44 165.714 49.884 165.786 50.34C165.882 50.796 165.942 51.252 165.966 51.708C165.99 52.14 166.002 52.536 166.002 52.896C166.002 53.472 165.978 54.024 165.93 54.552C165.906 55.056 165.87 55.584 165.822 56.136C165.798 56.688 165.774 57.288 165.75 57.936C165.726 58.584 165.714 59.328 165.714 60.168C165.714 61.656 166.014 62.748 166.614 63.444C167.238 64.14 168.234 64.488 169.602 64.488C170.874 64.488 171.942 64.164 172.806 63.516C173.67 62.844 174.522 61.932 175.362 60.78V48.072H177.342V60.816C177.342 62.664 177.81 64.092 178.746 65.1L177.522 66.288ZM187.751 66.36C186.935 66.36 186.167 66.252 185.447 66.036C184.751 65.82 184.139 65.496 183.611 65.064C183.107 64.632 182.711 64.092 182.423 63.444C182.135 62.796 181.991 62.052 181.991 61.212C181.991 60.204 182.207 59.364 182.639 58.692C183.095 58.02 183.683 57.48 184.403 57.072C185.123 56.64 185.927 56.34 186.815 56.172C187.727 56.004 188.651 55.92 189.587 55.92H193.079V53.904C193.079 52.416 192.779 51.324 192.179 50.628C191.579 49.932 190.631 49.584 189.335 49.584C188.375 49.584 187.403 49.788 186.419 50.196C185.435 50.604 184.631 51.048 184.007 51.528L183.035 50.016C183.731 49.392 184.643 48.852 185.771 48.396C186.923 47.94 188.111 47.712 189.335 47.712C191.351 47.712 192.803 48.228 193.691 49.26C194.603 50.268 195.059 51.684 195.059 53.508V60.816C195.059 62.664 195.527 64.092 196.463 65.1L195.239 66.288C194.735 65.904 194.339 65.472 194.051 64.992C193.763 64.488 193.535 63.96 193.367 63.408C192.911 64.32 192.215 65.04 191.279 65.568C190.343 66.096 189.167 66.36 187.751 66.36ZM187.751 64.488C188.471 64.488 189.143 64.392 189.767 64.2C190.391 63.984 190.943 63.684 191.423 63.3C191.927 62.916 192.323 62.436 192.611 61.86C192.899 61.284 193.055 60.624 193.079 59.88V57.756H189.587C188.915 57.756 188.243 57.804 187.571 57.9C186.923 57.972 186.335 58.14 185.807 58.404C185.279 58.644 184.847 58.992 184.511 59.448C184.199 59.904 184.043 60.492 184.043 61.212C184.043 62.412 184.367 63.264 185.015 63.768C185.663 64.248 186.575 64.488 187.751 64.488ZM199.17 62.004C199.17 61.38 199.302 60.828 199.566 60.348C199.854 59.844 200.226 59.424 200.682 59.088C201.162 58.752 201.726 58.488 202.374 58.296C203.022 58.104 203.73 57.996 204.498 57.972C203.634 56.916 203.202 55.596 203.202 54.012C203.202 53.028 203.37 52.152 203.706 51.384C204.042 50.592 204.51 49.932 205.11 49.404C205.71 48.852 206.418 48.432 207.234 48.144C208.074 47.856 208.986 47.712 209.97 47.712C210.426 47.712 210.858 47.748 211.266 47.82C211.674 47.868 212.07 47.952 212.454 48.072H218.394V49.908L215.118 49.692C215.622 50.22 216.018 50.844 216.306 51.564C216.594 52.284 216.738 53.1 216.738 54.012C216.738 54.996 216.57 55.872 216.234 56.64C215.898 57.408 215.43 58.068 214.83 58.62C214.23 59.148 213.51 59.556 212.67 59.844C211.854 60.132 210.954 60.276 209.97 60.276C208.626 60.276 207.45 60.024 206.442 59.52C206.25 59.496 206.058 59.484 205.866 59.484C205.674 59.46 205.47 59.448 205.254 59.448C204.774 59.448 204.294 59.484 203.814 59.556C203.334 59.628 202.89 59.76 202.482 59.952C202.098 60.144 201.774 60.396 201.51 60.708C201.27 61.02 201.15 61.416 201.15 61.896C201.15 62.376 201.258 62.772 201.474 63.084C201.69 63.372 201.99 63.6 202.374 63.768C202.758 63.912 203.214 64.008 203.742 64.056C204.294 64.104 204.882 64.128 205.506 64.128C206.25 64.128 207.042 64.116 207.882 64.092C208.722 64.044 209.586 64.02 210.474 64.02C211.482 64.02 212.478 64.092 213.462 64.236C214.47 64.356 215.37 64.608 216.162 64.992C216.954 65.352 217.59 65.88 218.07 66.576C218.55 67.272 218.79 68.172 218.79 69.276C218.79 70.428 218.526 71.376 217.998 72.12C217.47 72.888 216.786 73.5 215.946 73.956C215.106 74.436 214.158 74.772 213.102 74.964C212.046 75.156 210.99 75.252 209.934 75.252C208.878 75.252 207.834 75.156 206.802 74.964C205.794 74.772 204.882 74.436 204.066 73.956C203.25 73.5 202.59 72.888 202.086 72.12C201.582 71.352 201.33 70.404 201.33 69.276C201.33 68.508 201.342 67.764 201.366 67.044C201.414 66.324 201.462 65.76 201.51 65.352C200.814 65.064 200.25 64.656 199.818 64.128C199.386 63.6 199.17 62.892 199.17 62.004ZM206.082 66.036C205.626 66.036 205.17 66.024 204.714 66C204.282 65.976 203.85 65.928 203.418 65.856C203.394 66.048 203.37 66.432 203.346 67.008C203.322 67.584 203.31 68.34 203.31 69.276C203.31 70.596 203.862 71.604 204.966 72.3C206.094 73.02 207.75 73.38 209.934 73.38C210.726 73.38 211.518 73.32 212.31 73.2C213.126 73.104 213.87 72.9 214.542 72.588C215.214 72.276 215.754 71.856 216.162 71.328C216.594 70.8 216.81 70.116 216.81 69.276C216.81 68.556 216.618 67.968 216.234 67.512C215.874 67.08 215.394 66.744 214.794 66.504C214.194 66.288 213.498 66.132 212.706 66.036C211.914 65.964 211.11 65.928 210.294 65.928C209.694 65.928 209.034 65.952 208.314 66C207.594 66.024 206.85 66.036 206.082 66.036ZM209.934 49.584C208.47 49.584 207.306 49.98 206.442 50.772C205.602 51.564 205.182 52.632 205.182 53.976C205.182 55.32 205.602 56.388 206.442 57.18C207.306 57.972 208.47 58.368 209.934 58.368C211.374 58.368 212.526 57.972 213.39 57.18C214.254 56.388 214.686 55.32 214.686 53.976C214.686 52.632 214.254 51.564 213.39 50.772C212.526 49.98 211.374 49.584 209.934 49.584ZM223.824 58.8C224.04 60.672 224.628 62.088 225.588 63.048C226.572 64.008 228 64.488 229.872 64.488C230.88 64.488 231.84 64.32 232.752 63.984C233.664 63.648 234.576 63.24 235.488 62.76L236.424 64.272C235.584 64.848 234.6 65.34 233.472 65.748C232.368 66.156 231.168 66.36 229.872 66.36C227.16 66.36 225.108 65.568 223.716 63.984C222.348 62.376 221.664 60.084 221.664 57.108C221.664 55.86 221.844 54.672 222.204 53.544C222.588 52.416 223.116 51.42 223.788 50.556C224.484 49.692 225.312 49.008 226.272 48.504C227.232 47.976 228.3 47.712 229.476 47.712C230.364 47.712 231.204 47.844 231.996 48.108C232.788 48.348 233.472 48.708 234.048 49.188C234.648 49.644 235.116 50.22 235.452 50.916C235.812 51.588 235.992 52.344 235.992 53.184C235.992 54.24 235.764 55.128 235.308 55.848C234.852 56.568 234.252 57.144 233.508 57.576C232.788 58.008 231.948 58.32 230.988 58.512C230.052 58.704 229.08 58.8 228.072 58.8H223.824ZM229.476 49.476C228.612 49.476 227.82 49.692 227.1 50.124C226.404 50.556 225.804 51.12 225.3 51.816C224.796 52.512 224.4 53.304 224.112 54.192C223.848 55.08 223.716 55.992 223.716 56.928H228.072C229.296 56.928 230.292 56.82 231.06 56.604C231.828 56.364 232.428 56.064 232.86 55.704C233.292 55.344 233.58 54.948 233.724 54.516C233.868 54.06 233.94 53.616 233.94 53.184C233.94 52.056 233.52 51.156 232.68 50.484C231.864 49.812 230.796 49.476 229.476 49.476ZM252.499 56.028H241.807V53.976H252.499V56.028ZM283.642 41.16C283.09 41.928 282.394 42.48 281.554 42.816C280.714 43.128 279.862 43.308 278.998 43.356C279.358 43.836 279.742 44.424 280.15 45.12C280.582 45.792 280.978 46.56 281.338 47.424C281.698 48.288 281.986 49.248 282.202 50.304C282.442 51.336 282.562 52.464 282.562 53.688C282.562 55.488 282.274 57.168 281.698 58.728C281.122 60.264 280.294 61.596 279.214 62.724C278.158 63.852 276.886 64.74 275.398 65.388C273.91 66.036 272.254 66.36 270.43 66.36C268.582 66.36 266.914 66.036 265.426 65.388C263.938 64.74 262.654 63.852 261.574 62.724C260.518 61.572 259.702 60.228 259.126 58.692C258.55 57.156 258.262 55.488 258.262 53.688C258.262 51.888 258.55 50.22 259.126 48.684C259.702 47.124 260.518 45.78 261.574 44.652C262.654 43.524 263.938 42.636 265.426 41.988C266.914 41.34 268.582 41.016 270.43 41.016C271.942 41.016 273.322 41.076 274.57 41.196C275.842 41.316 277.042 41.376 278.17 41.376C279.13 41.376 279.958 41.256 280.654 41.016C281.35 40.776 281.95 40.416 282.454 39.936L283.642 41.16ZM280.402 53.688C280.402 52.176 280.222 50.832 279.862 49.656C279.502 48.456 279.082 47.424 278.602 46.56C278.146 45.672 277.69 44.964 277.234 44.436C276.778 43.884 276.454 43.512 276.262 43.32C275.374 43.272 274.438 43.212 273.454 43.14C272.494 43.044 271.474 42.996 270.394 42.996C268.906 42.996 267.55 43.26 266.326 43.788C265.102 44.292 264.058 45.024 263.194 45.984C262.33 46.92 261.658 48.048 261.178 49.368C260.698 50.664 260.458 52.104 260.458 53.688C260.458 55.272 260.698 56.724 261.178 58.044C261.658 59.34 262.33 60.456 263.194 61.392C264.082 62.328 265.138 63.06 266.362 63.588C267.586 64.116 268.942 64.38 270.43 64.38C271.918 64.38 273.274 64.128 274.498 63.624C275.722 63.096 276.766 62.364 277.63 61.428C278.518 60.468 279.202 59.34 279.682 58.044C280.162 56.724 280.402 55.272 280.402 53.688ZM297.103 49.872C296.887 49.848 296.647 49.812 296.383 49.764C296.167 49.716 295.915 49.68 295.627 49.656C295.363 49.632 295.063 49.62 294.727 49.62C293.743 49.62 292.855 49.932 292.063 50.556C291.271 51.18 290.563 52.044 289.939 53.148V53.292V66H287.959V53.292C287.959 52.332 287.839 51.504 287.599 50.808C287.359 50.112 286.999 49.512 286.519 49.008L287.743 47.82C288.295 48.228 288.727 48.708 289.039 49.26C289.351 49.788 289.579 50.364 289.723 50.988C290.347 49.884 291.079 49.068 291.919 48.54C292.759 47.988 293.779 47.712 294.979 47.712C295.243 47.712 295.507 47.724 295.771 47.748C296.035 47.772 296.263 47.808 296.455 47.856C296.695 47.904 296.911 47.952 297.103 48V49.872ZM301.036 47.82C301.492 48.156 301.852 48.54 302.116 48.972C302.404 49.38 302.632 49.824 302.8 50.304C302.968 50.784 303.076 51.276 303.124 51.78C303.196 52.284 303.232 52.788 303.232 53.292V66H301.252V53.292C301.252 52.332 301.132 51.504 300.892 50.808C300.652 50.112 300.292 49.512 299.812 49.008L301.036 47.82ZM300.28 42.168C300.28 41.688 300.436 41.292 300.748 40.98C301.084 40.644 301.48 40.476 301.936 40.476C302.416 40.476 302.812 40.644 303.124 40.98C303.46 41.292 303.628 41.688 303.628 42.168C303.628 42.624 303.46 43.02 303.124 43.356C302.812 43.668 302.416 43.824 301.936 43.824C301.48 43.824 301.084 43.668 300.748 43.356C300.436 43.02 300.28 42.624 300.28 42.168ZM310.66 58.8C310.876 60.672 311.464 62.088 312.424 63.048C313.408 64.008 314.836 64.488 316.708 64.488C317.716 64.488 318.676 64.32 319.588 63.984C320.5 63.648 321.412 63.24 322.324 62.76L323.26 64.272C322.42 64.848 321.436 65.34 320.308 65.748C319.204 66.156 318.004 66.36 316.708 66.36C313.996 66.36 311.944 65.568 310.552 63.984C309.184 62.376 308.5 60.084 308.5 57.108C308.5 55.86 308.68 54.672 309.04 53.544C309.424 52.416 309.952 51.42 310.624 50.556C311.32 49.692 312.148 49.008 313.108 48.504C314.068 47.976 315.136 47.712 316.312 47.712C317.2 47.712 318.04 47.844 318.832 48.108C319.624 48.348 320.308 48.708 320.884 49.188C321.484 49.644 321.952 50.22 322.288 50.916C322.648 51.588 322.828 52.344 322.828 53.184C322.828 54.24 322.6 55.128 322.144 55.848C321.688 56.568 321.088 57.144 320.344 57.576C319.624 58.008 318.784 58.32 317.824 58.512C316.888 58.704 315.916 58.8 314.908 58.8H310.66ZM316.312 49.476C315.448 49.476 314.656 49.692 313.936 50.124C313.24 50.556 312.64 51.12 312.136 51.816C311.632 52.512 311.236 53.304 310.948 54.192C310.684 55.08 310.552 55.992 310.552 56.928H314.908C316.132 56.928 317.128 56.82 317.896 56.604C318.664 56.364 319.264 56.064 319.696 55.704C320.128 55.344 320.416 54.948 320.56 54.516C320.704 54.06 320.776 53.616 320.776 53.184C320.776 52.056 320.356 51.156 319.516 50.484C318.7 49.812 317.632 49.476 316.312 49.476ZM340.847 66C340.463 65.28 340.211 64.476 340.091 63.588C339.971 62.676 339.911 61.872 339.911 61.176C339.911 60.6 339.923 60.06 339.947 59.556C339.971 59.052 339.995 58.524 340.019 57.972C340.067 57.396 340.103 56.784 340.127 56.136C340.175 55.488 340.199 54.744 340.199 53.904C340.199 52.416 339.863 51.324 339.191 50.628C338.519 49.932 337.499 49.584 336.131 49.584C334.835 49.584 333.743 49.908 332.855 50.556C331.967 51.18 331.103 52.068 330.263 53.22V53.292V66H328.283V53.292C328.283 52.332 328.163 51.504 327.923 50.808C327.683 50.112 327.323 49.512 326.843 49.008L328.067 47.82C328.643 48.228 329.087 48.732 329.399 49.332C329.711 49.908 329.927 50.508 330.047 51.132C330.839 49.98 331.739 49.128 332.747 48.576C333.779 48 334.907 47.712 336.131 47.712C338.243 47.712 339.779 48.216 340.739 49.224C341.699 50.232 342.179 51.66 342.179 53.508C342.179 54.372 342.155 55.164 342.107 55.884C342.083 56.58 342.047 57.24 341.999 57.864C341.975 58.488 341.951 59.088 341.927 59.664C341.903 60.24 341.891 60.816 341.891 61.392C341.891 62.184 341.951 62.94 342.071 63.66C342.191 64.38 342.419 65.16 342.755 66H340.847ZM348.15 47.856C348.15 46.896 348.03 46.068 347.79 45.372C347.55 44.676 347.19 44.076 346.71 43.572L347.934 42.384C348.39 42.72 348.75 43.104 349.014 43.536C349.302 43.944 349.53 44.388 349.698 44.868C349.866 45.348 349.974 45.84 350.022 46.344C350.094 46.848 350.13 47.352 350.13 47.856V48.072H355.818V50.052H350.13V60.852C350.13 61.548 350.202 62.136 350.346 62.616C350.49 63.072 350.682 63.444 350.922 63.732C351.162 63.996 351.45 64.188 351.786 64.308C352.122 64.428 352.47 64.488 352.83 64.488C353.262 64.488 353.718 64.428 354.198 64.308C354.678 64.164 355.134 64.008 355.566 63.84C355.998 63.648 356.382 63.456 356.718 63.264C357.078 63.048 357.366 62.88 357.582 62.76L358.518 64.272C358.326 64.416 358.014 64.608 357.582 64.848C357.174 65.088 356.694 65.328 356.142 65.568C355.59 65.784 354.99 65.964 354.342 66.108C353.718 66.276 353.094 66.36 352.47 66.36C351.894 66.36 351.342 66.264 350.814 66.072C350.31 65.904 349.854 65.616 349.446 65.208C349.062 64.776 348.75 64.212 348.51 63.516C348.27 62.796 348.15 61.908 348.15 60.852V47.856ZM363.394 58.8C363.61 60.672 364.198 62.088 365.158 63.048C366.142 64.008 367.57 64.488 369.442 64.488C370.45 64.488 371.41 64.32 372.322 63.984C373.234 63.648 374.146 63.24 375.058 62.76L375.994 64.272C375.154 64.848 374.17 65.34 373.042 65.748C371.938 66.156 370.738 66.36 369.442 66.36C366.73 66.36 364.678 65.568 363.286 63.984C361.918 62.376 361.234 60.084 361.234 57.108C361.234 55.86 361.414 54.672 361.774 53.544C362.158 52.416 362.686 51.42 363.358 50.556C364.054 49.692 364.882 49.008 365.842 48.504C366.802 47.976 367.87 47.712 369.046 47.712C369.934 47.712 370.774 47.844 371.566 48.108C372.358 48.348 373.042 48.708 373.618 49.188C374.218 49.644 374.686 50.22 375.022 50.916C375.382 51.588 375.562 52.344 375.562 53.184C375.562 54.24 375.334 55.128 374.878 55.848C374.422 56.568 373.822 57.144 373.078 57.576C372.358 58.008 371.518 58.32 370.558 58.512C369.622 58.704 368.65 58.8 367.642 58.8H363.394ZM369.046 49.476C368.182 49.476 367.39 49.692 366.67 50.124C365.974 50.556 365.374 51.12 364.87 51.816C364.366 52.512 363.97 53.304 363.682 54.192C363.418 55.08 363.286 55.992 363.286 56.928H367.642C368.866 56.928 369.862 56.82 370.63 56.604C371.398 56.364 371.998 56.064 372.43 55.704C372.862 55.344 373.15 54.948 373.294 54.516C373.438 54.06 373.51 53.616 373.51 53.184C373.51 52.056 373.09 51.156 372.25 50.484C371.434 49.812 370.366 49.476 369.046 49.476ZM387.245 66.36C386.021 66.36 384.929 66.12 383.969 65.64C383.033 65.16 382.229 64.5 381.557 63.66C380.909 62.82 380.417 61.848 380.081 60.744C379.745 59.616 379.577 58.404 379.577 57.108C379.577 55.764 379.769 54.528 380.153 53.4C380.561 52.248 381.125 51.252 381.845 50.412C382.589 49.572 383.477 48.912 384.509 48.432C385.541 47.952 386.693 47.712 387.965 47.712C388.973 47.712 389.873 47.748 390.665 47.82C391.457 47.892 392.129 47.964 392.681 48.036V39.828H394.661V60.816C394.661 62.664 395.129 64.092 396.065 65.1L394.841 66.288C394.289 65.88 393.869 65.412 393.581 64.884C393.293 64.356 393.077 63.792 392.933 63.192C392.429 64.2 391.673 64.98 390.665 65.532C389.681 66.084 388.541 66.36 387.245 66.36ZM387.245 64.488C387.869 64.488 388.505 64.38 389.153 64.164C389.801 63.948 390.377 63.624 390.881 63.192C391.409 62.76 391.841 62.22 392.177 61.572C392.513 60.9 392.681 60.12 392.681 59.232V49.944C392.249 49.896 391.613 49.824 390.773 49.728C389.933 49.632 389.009 49.584 388.001 49.584C387.041 49.584 386.165 49.764 385.373 50.124C384.605 50.484 383.933 50.988 383.357 51.636C382.805 52.284 382.373 53.064 382.061 53.976C381.773 54.888 381.629 55.896 381.629 57C381.629 57.984 381.737 58.932 381.953 59.844C382.193 60.732 382.541 61.524 382.997 62.22C383.477 62.892 384.065 63.444 384.761 63.876C385.481 64.284 386.309 64.488 387.245 64.488ZM26.736 81.692L37.5 107H35.196L31.704 98.828H21.084L17.664 107H15.36L26.052 81.692H26.736ZM21.948 96.776H30.84L27.276 88.388C27.084 87.932 26.904 87.452 26.736 86.948C26.592 86.42 26.472 85.964 26.376 85.58C26.28 85.988 26.16 86.456 26.016 86.984C25.872 87.488 25.704 87.956 25.512 88.388L21.948 96.776ZM48.4716 88.712C49.6956 88.712 50.7756 88.952 51.7116 89.432C52.6716 89.912 53.4756 90.572 54.1236 91.412C54.7956 92.252 55.2996 93.236 55.6356 94.364C55.9716 95.468 56.1396 96.668 56.1396 97.964C56.1396 99.308 55.9356 100.556 55.5276 101.708C55.1436 102.836 54.5796 103.82 53.8356 104.66C53.1156 105.5 52.2396 106.16 51.2076 106.64C50.1756 107.12 49.0236 107.36 47.7516 107.36C46.7436 107.36 45.8436 107.324 45.0516 107.252C44.2836 107.18 43.6236 107.108 43.0716 107.036V116H41.0916V94.292C41.0916 93.332 40.9716 92.504 40.7316 91.808C40.4916 91.112 40.1316 90.512 39.6516 90.008L40.8756 88.82C41.4036 89.228 41.8116 89.684 42.0996 90.188C42.4116 90.692 42.6396 91.244 42.7836 91.844C43.2876 90.86 44.0316 90.092 45.0156 89.54C46.0236 88.988 47.1756 88.712 48.4716 88.712ZM48.4716 90.584C47.8716 90.584 47.2716 90.68 46.6716 90.872C46.0716 91.064 45.5196 91.352 45.0156 91.736C44.5116 92.12 44.0796 92.6 43.7196 93.176C43.3596 93.752 43.1436 94.424 43.0716 95.192V105.164C43.5036 105.212 44.1396 105.284 44.9796 105.38C45.8196 105.452 46.7316 105.488 47.7156 105.488C48.6756 105.488 49.5396 105.308 50.3076 104.948C51.0996 104.588 51.7716 104.084 52.3236 103.436C52.8996 102.788 53.3316 102.008 53.6196 101.096C53.9316 100.184 54.0876 99.176 54.0876 98.072C54.0876 97.112 53.9676 96.176 53.7276 95.264C53.4876 94.352 53.1276 93.56 52.6476 92.888C52.1916 92.192 51.6156 91.64 50.9196 91.232C50.2236 90.8 49.4076 90.584 48.4716 90.584ZM68.5458 88.712C69.7698 88.712 70.8498 88.952 71.7858 89.432C72.7458 89.912 73.5498 90.572 74.1978 91.412C74.8698 92.252 75.3738 93.236 75.7098 94.364C76.0458 95.468 76.2138 96.668 76.2138 97.964C76.2138 99.308 76.0098 100.556 75.6018 101.708C75.2178 102.836 74.6538 103.82 73.9098 104.66C73.1898 105.5 72.3138 106.16 71.2818 106.64C70.2498 107.12 69.0978 107.36 67.8258 107.36C66.8178 107.36 65.9178 107.324 65.1258 107.252C64.3578 107.18 63.6978 107.108 63.1458 107.036V116H61.1658V94.292C61.1658 93.332 61.0458 92.504 60.8058 91.808C60.5658 91.112 60.2058 90.512 59.7258 90.008L60.9498 88.82C61.4778 89.228 61.8858 89.684 62.1738 90.188C62.4858 90.692 62.7138 91.244 62.8578 91.844C63.3618 90.86 64.1058 90.092 65.0898 89.54C66.0978 88.988 67.2498 88.712 68.5458 88.712ZM68.5458 90.584C67.9458 90.584 67.3458 90.68 66.7458 90.872C66.1458 91.064 65.5938 91.352 65.0898 91.736C64.5858 92.12 64.1538 92.6 63.7938 93.176C63.4338 93.752 63.2178 94.424 63.1458 95.192V105.164C63.5778 105.212 64.2138 105.284 65.0538 105.38C65.8938 105.452 66.8058 105.488 67.7898 105.488C68.7498 105.488 69.6138 105.308 70.3818 104.948C71.1738 104.588 71.8458 104.084 72.3978 103.436C72.9738 102.788 73.4058 102.008 73.6938 101.096C74.0058 100.184 74.1618 99.176 74.1618 98.072C74.1618 97.112 74.0418 96.176 73.8018 95.264C73.5618 94.352 73.2018 93.56 72.7218 92.888C72.2658 92.192 71.6898 91.64 70.9938 91.232C70.2978 90.8 69.4818 90.584 68.5458 90.584ZM90.384 90.872C90.168 90.848 89.928 90.812 89.664 90.764C89.448 90.716 89.196 90.68 88.908 90.656C88.644 90.632 88.344 90.62 88.008 90.62C87.024 90.62 86.136 90.932 85.344 91.556C84.552 92.18 83.844 93.044 83.22 94.148V94.292V107H81.24V94.292C81.24 93.332 81.12 92.504 80.88 91.808C80.64 91.112 80.28 90.512 79.8 90.008L81.024 88.82C81.576 89.228 82.008 89.708 82.32 90.26C82.632 90.788 82.86 91.364 83.004 91.988C83.628 90.884 84.36 90.068 85.2 89.54C86.04 88.988 87.06 88.712 88.26 88.712C88.524 88.712 88.788 88.724 89.052 88.748C89.316 88.772 89.544 88.808 89.736 88.856C89.976 88.904 90.192 88.952 90.384 89V90.872ZM101.174 107.36C99.8302 107.36 98.6062 107.132 97.5022 106.676C96.3982 106.22 95.4502 105.584 94.6582 104.768C93.8902 103.928 93.2902 102.944 92.8582 101.816C92.4262 100.688 92.2102 99.452 92.2102 98.108C92.2102 96.764 92.4262 95.528 92.8582 94.4C93.2902 93.248 93.8902 92.252 94.6582 91.412C95.4502 90.572 96.3982 89.912 97.5022 89.432C98.6062 88.952 99.8302 88.712 101.174 88.712C102.518 88.712 103.73 88.952 104.81 89.432C105.914 89.888 106.85 90.536 107.618 91.376C108.41 92.192 109.022 93.176 109.454 94.328C109.886 95.456 110.102 96.68 110.102 98C110.102 99.344 109.886 100.592 109.454 101.744C109.022 102.896 108.41 103.892 107.618 104.732C106.85 105.548 105.914 106.196 104.81 106.676C103.73 107.132 102.518 107.36 101.174 107.36ZM101.174 90.584C100.118 90.584 99.1702 90.764 98.3302 91.124C97.4902 91.484 96.7582 91.988 96.1342 92.636C95.5342 93.284 95.0662 94.064 94.7302 94.976C94.4182 95.888 94.2622 96.896 94.2622 98C94.2622 99.128 94.4182 100.16 94.7302 101.096C95.0662 102.008 95.5342 102.788 96.1342 103.436C96.7582 104.084 97.4902 104.588 98.3302 104.948C99.1702 105.308 100.118 105.488 101.174 105.488C102.206 105.488 103.142 105.308 103.982 104.948C104.846 104.564 105.578 104.048 106.178 103.4C106.778 102.728 107.234 101.936 107.546 101.024C107.882 100.088 108.05 99.056 108.05 97.928C108.05 96.824 107.882 95.828 107.546 94.94C107.234 94.028 106.778 93.248 106.178 92.6C105.578 91.952 104.846 91.46 103.982 91.124C103.142 90.764 102.206 90.584 101.174 90.584ZM119.091 107.36C118.275 107.36 117.507 107.252 116.787 107.036C116.091 106.82 115.479 106.496 114.951 106.064C114.447 105.632 114.051 105.092 113.763 104.444C113.475 103.796 113.331 103.052 113.331 102.212C113.331 101.204 113.547 100.364 113.979 99.692C114.435 99.02 115.023 98.48 115.743 98.072C116.463 97.64 117.267 97.34 118.155 97.172C119.067 97.004 119.991 96.92 120.927 96.92H124.419V94.904C124.419 93.416 124.119 92.324 123.519 91.628C122.919 90.932 121.971 90.584 120.675 90.584C119.715 90.584 118.743 90.788 117.759 91.196C116.775 91.604 115.971 92.048 115.347 92.528L114.375 91.016C115.071 90.392 115.983 89.852 117.111 89.396C118.263 88.94 119.451 88.712 120.675 88.712C122.691 88.712 124.143 89.228 125.031 90.26C125.943 91.268 126.399 92.684 126.399 94.508V101.816C126.399 103.664 126.867 105.092 127.803 106.1L126.579 107.288C126.075 106.904 125.679 106.472 125.391 105.992C125.103 105.488 124.875 104.96 124.707 104.408C124.251 105.32 123.555 106.04 122.619 106.568C121.683 107.096 120.507 107.36 119.091 107.36ZM119.091 105.488C119.811 105.488 120.483 105.392 121.107 105.2C121.731 104.984 122.283 104.684 122.763 104.3C123.267 103.916 123.663 103.436 123.951 102.86C124.239 102.284 124.395 101.624 124.419 100.88V98.756H120.927C120.255 98.756 119.583 98.804 118.911 98.9C118.263 98.972 117.675 99.14 117.147 99.404C116.619 99.644 116.187 99.992 115.851 100.448C115.539 100.904 115.383 101.492 115.383 102.212C115.383 103.412 115.707 104.264 116.355 104.768C117.003 105.248 117.915 105.488 119.091 105.488ZM133.821 98C133.821 100.448 134.325 102.308 135.333 103.58C136.341 104.852 137.745 105.488 139.545 105.488C140.385 105.488 141.201 105.32 141.993 104.984C142.785 104.648 143.565 104.24 144.333 103.76L145.269 105.272C144.525 105.848 143.661 106.34 142.677 106.748C141.693 107.156 140.625 107.36 139.473 107.36C137.121 107.36 135.249 106.568 133.857 104.984C132.465 103.376 131.769 101.084 131.769 98.108C131.769 97.1 131.865 96.044 132.057 94.94C132.249 93.836 132.597 92.828 133.101 91.916C133.629 90.98 134.349 90.212 135.261 89.612C136.173 89.012 137.361 88.712 138.825 88.712C139.545 88.712 140.325 88.748 141.165 88.82C142.005 88.868 142.833 88.928 143.649 89V90.872C142.713 90.8 141.789 90.74 140.877 90.692C139.965 90.62 139.197 90.584 138.573 90.584C137.661 90.584 136.893 90.788 136.269 91.196C135.669 91.604 135.189 92.156 134.829 92.852C134.469 93.524 134.205 94.316 134.037 95.228C133.893 96.116 133.821 97.04 133.821 98ZM160.878 107C160.494 106.28 160.242 105.476 160.122 104.588C160.002 103.676 159.942 102.872 159.942 102.176C159.942 101.6 159.954 101.06 159.978 100.556C160.002 100.052 160.026 99.524 160.05 98.972C160.098 98.396 160.134 97.784 160.158 97.136C160.206 96.488 160.23 95.744 160.23 94.904C160.23 93.416 159.894 92.324 159.222 91.628C158.55 90.932 157.53 90.584 156.162 90.584C154.866 90.584 153.774 90.908 152.886 91.556C151.998 92.18 151.134 93.068 150.294 94.22V107H148.314V80.864H150.294V91.88C151.062 90.8 151.938 90.008 152.922 89.504C153.93 88.976 155.01 88.712 156.162 88.712C158.274 88.712 159.81 89.216 160.77 90.224C161.73 91.232 162.21 92.66 162.21 94.508C162.21 95.372 162.186 96.164 162.138 96.884C162.114 97.58 162.078 98.24 162.03 98.864C162.006 99.488 161.982 100.088 161.958 100.664C161.934 101.24 161.922 101.816 161.922 102.392C161.922 103.184 161.982 103.94 162.102 104.66C162.222 105.38 162.45 106.16 162.786 107H160.878ZM178.979 88.856C178.979 87.896 178.859 87.068 178.619 86.372C178.379 85.676 178.019 85.076 177.539 84.572L178.763 83.384C179.219 83.72 179.579 84.104 179.843 84.536C180.131 84.944 180.359 85.388 180.527 85.868C180.695 86.348 180.803 86.84 180.851 87.344C180.923 87.848 180.959 88.352 180.959 88.856V89.072H186.647V91.052H180.959V101.852C180.959 102.548 181.031 103.136 181.175 103.616C181.319 104.072 181.511 104.444 181.751 104.732C181.991 104.996 182.279 105.188 182.615 105.308C182.951 105.428 183.299 105.488 183.659 105.488C184.091 105.488 184.547 105.428 185.027 105.308C185.507 105.164 185.963 105.008 186.395 104.84C186.827 104.648 187.211 104.456 187.547 104.264C187.907 104.048 188.195 103.88 188.411 103.76L189.347 105.272C189.155 105.416 188.843 105.608 188.411 105.848C188.003 106.088 187.523 106.328 186.971 106.568C186.419 106.784 185.819 106.964 185.171 107.108C184.547 107.276 183.923 107.36 183.299 107.36C182.723 107.36 182.171 107.264 181.643 107.072C181.139 106.904 180.683 106.616 180.275 106.208C179.891 105.776 179.579 105.212 179.339 104.516C179.099 103.796 178.979 102.908 178.979 101.852V88.856ZM200.666 107.36C199.322 107.36 198.098 107.132 196.994 106.676C195.89 106.22 194.942 105.584 194.15 104.768C193.382 103.928 192.782 102.944 192.35 101.816C191.918 100.688 191.702 99.452 191.702 98.108C191.702 96.764 191.918 95.528 192.35 94.4C192.782 93.248 193.382 92.252 194.15 91.412C194.942 90.572 195.89 89.912 196.994 89.432C198.098 88.952 199.322 88.712 200.666 88.712C202.01 88.712 203.222 88.952 204.302 89.432C205.406 89.888 206.342 90.536 207.11 91.376C207.902 92.192 208.514 93.176 208.946 94.328C209.378 95.456 209.594 96.68 209.594 98C209.594 99.344 209.378 100.592 208.946 101.744C208.514 102.896 207.902 103.892 207.11 104.732C206.342 105.548 205.406 106.196 204.302 106.676C203.222 107.132 202.01 107.36 200.666 107.36ZM200.666 90.584C199.61 90.584 198.662 90.764 197.822 91.124C196.982 91.484 196.25 91.988 195.626 92.636C195.026 93.284 194.558 94.064 194.222 94.976C193.91 95.888 193.754 96.896 193.754 98C193.754 99.128 193.91 100.16 194.222 101.096C194.558 102.008 195.026 102.788 195.626 103.436C196.25 104.084 196.982 104.588 197.822 104.948C198.662 105.308 199.61 105.488 200.666 105.488C201.698 105.488 202.634 105.308 203.474 104.948C204.338 104.564 205.07 104.048 205.67 103.4C206.27 102.728 206.726 101.936 207.038 101.024C207.374 100.088 207.542 99.056 207.542 97.928C207.542 96.824 207.374 95.828 207.038 94.94C206.726 94.028 206.27 93.248 205.67 92.6C205.07 91.952 204.338 91.46 203.474 91.124C202.634 90.764 201.698 90.584 200.666 90.584ZM233.912 81.692L244.676 107H242.372L238.88 98.828H228.26L224.84 107H222.536L233.228 81.692H233.912ZM229.124 96.776H238.016L234.452 88.388C234.26 87.932 234.08 87.452 233.912 86.948C233.768 86.42 233.648 85.964 233.552 85.58C233.456 85.988 233.336 86.456 233.192 86.984C233.048 87.488 232.88 87.956 232.688 88.388L229.124 96.776ZM256.259 83.996C255.491 83.996 254.879 84.02 254.423 84.068C253.967 84.092 253.571 84.128 253.235 84.176C252.923 84.2 252.623 84.236 252.335 84.284C252.047 84.332 251.711 84.356 251.327 84.356V107H249.131V84.284C248.363 84.164 247.631 83.948 246.935 83.636C246.263 83.324 245.687 82.832 245.207 82.16L246.395 80.936C246.899 81.416 247.499 81.776 248.195 82.016C248.891 82.256 249.719 82.376 250.679 82.376C251.231 82.376 251.699 82.364 252.083 82.34C252.467 82.292 252.851 82.244 253.235 82.196C253.619 82.148 254.039 82.112 254.495 82.088C254.975 82.04 255.599 82.016 256.367 82.016C257.495 82.016 258.515 82.22 259.427 82.628C260.363 83.012 261.155 83.564 261.803 84.284C262.451 84.98 262.955 85.808 263.315 86.768C263.675 87.704 263.855 88.724 263.855 89.828C263.855 90.956 263.675 92 263.315 92.96C262.955 93.896 262.451 94.724 261.803 95.444C261.155 96.14 260.363 96.692 259.427 97.1C258.515 97.484 257.495 97.676 256.367 97.676C255.911 97.676 255.491 97.676 255.107 97.676C254.723 97.676 254.387 97.664 254.099 97.64C253.763 97.64 253.451 97.628 253.163 97.604V95.624C253.451 95.648 253.763 95.66 254.099 95.66C254.387 95.684 254.711 95.696 255.071 95.696C255.455 95.696 255.851 95.696 256.259 95.696C257.075 95.696 257.819 95.552 258.491 95.264C259.163 94.976 259.739 94.58 260.219 94.076C260.699 93.548 261.071 92.924 261.335 92.204C261.599 91.484 261.731 90.692 261.731 89.828C261.731 88.964 261.599 88.184 261.335 87.488C261.071 86.768 260.699 86.156 260.219 85.652C259.739 85.124 259.163 84.716 258.491 84.428C257.819 84.14 257.075 83.996 256.259 83.996ZM270.718 82.376V107H268.522V82.376H270.718ZM19.104 125.284C18.336 125.164 17.604 124.948 16.908 124.636C16.236 124.324 15.66 123.832 15.18 123.16L16.368 121.936C16.872 122.416 17.472 122.776 18.168 123.016C18.864 123.256 19.692 123.376 20.652 123.376C21.78 123.376 22.908 123.316 24.036 123.196C25.188 123.076 26.52 123.016 28.032 123.016C29.952 123.016 31.68 123.34 33.216 123.988C34.752 124.636 36.06 125.536 37.14 126.688C38.22 127.816 39.048 129.148 39.624 130.684C40.224 132.22 40.524 133.888 40.524 135.688C40.524 137.488 40.224 139.168 39.624 140.728C39.048 142.264 38.22 143.596 37.14 144.724C36.06 145.852 34.752 146.74 33.216 147.388C31.68 148.036 29.952 148.36 28.032 148.36C26.184 148.36 24.672 148.336 23.496 148.288C22.344 148.264 21.444 148.228 20.796 148.18C20.004 148.132 19.44 148.072 19.104 148V125.284ZM28.032 124.996C26.712 124.996 25.512 125.056 24.432 125.176C23.352 125.272 22.308 125.332 21.3 125.356V146.2C22.044 146.248 22.956 146.296 24.036 146.344C25.14 146.368 26.472 146.38 28.032 146.38C29.616 146.38 31.044 146.128 32.316 145.624C33.588 145.096 34.668 144.364 35.556 143.428C36.468 142.468 37.164 141.34 37.644 140.044C38.124 138.724 38.364 137.272 38.364 135.688C38.364 134.104 38.124 132.664 37.644 131.368C37.164 130.048 36.468 128.92 35.556 127.984C34.668 127.048 33.588 126.316 32.316 125.788C31.044 125.26 29.616 124.996 28.032 124.996ZM46.988 140.8C47.204 142.672 47.792 144.088 48.752 145.048C49.736 146.008 51.164 146.488 53.036 146.488C54.044 146.488 55.004 146.32 55.916 145.984C56.828 145.648 57.74 145.24 58.652 144.76L59.588 146.272C58.748 146.848 57.764 147.34 56.636 147.748C55.532 148.156 54.332 148.36 53.036 148.36C50.324 148.36 48.272 147.568 46.88 145.984C45.512 144.376 44.828 142.084 44.828 139.108C44.828 137.86 45.008 136.672 45.368 135.544C45.752 134.416 46.28 133.42 46.952 132.556C47.648 131.692 48.476 131.008 49.436 130.504C50.396 129.976 51.464 129.712 52.64 129.712C53.528 129.712 54.368 129.844 55.16 130.108C55.952 130.348 56.636 130.708 57.212 131.188C57.812 131.644 58.28 132.22 58.616 132.916C58.976 133.588 59.156 134.344 59.156 135.184C59.156 136.24 58.928 137.128 58.472 137.848C58.016 138.568 57.416 139.144 56.672 139.576C55.952 140.008 55.112 140.32 54.152 140.512C53.216 140.704 52.244 140.8 51.236 140.8H46.988ZM52.64 131.476C51.776 131.476 50.984 131.692 50.264 132.124C49.568 132.556 48.968 133.12 48.464 133.816C47.96 134.512 47.564 135.304 47.276 136.192C47.012 137.08 46.88 137.992 46.88 138.928H51.236C52.46 138.928 53.456 138.82 54.224 138.604C54.992 138.364 55.592 138.064 56.024 137.704C56.456 137.344 56.744 136.948 56.888 136.516C57.032 136.06 57.104 135.616 57.104 135.184C57.104 134.056 56.684 133.156 55.844 132.484C55.028 131.812 53.96 131.476 52.64 131.476ZM73.4671 148.288C72.8431 148.432 72.2791 148.504 71.7751 148.504C70.9831 148.504 70.2871 148.36 69.6871 148.072C69.1111 147.808 68.6071 147.448 68.1751 146.992C67.7431 146.536 67.3831 146.02 67.0951 145.444C66.8071 144.844 66.5791 144.244 66.4111 143.644L62.6311 130.432L64.5751 129.892L68.3551 143.104C68.6191 144.112 69.0271 144.952 69.5791 145.624C70.1551 146.272 70.9111 146.656 71.8471 146.776L77.1751 129.892L79.0471 130.504L73.4671 148.288ZM84.2536 140.8C84.4696 142.672 85.0576 144.088 86.0176 145.048C87.0016 146.008 88.4296 146.488 90.3016 146.488C91.3096 146.488 92.2696 146.32 93.1816 145.984C94.0936 145.648 95.0056 145.24 95.9176 144.76L96.8536 146.272C96.0136 146.848 95.0296 147.34 93.9016 147.748C92.7976 148.156 91.5976 148.36 90.3016 148.36C87.5896 148.36 85.5376 147.568 84.1456 145.984C82.7776 144.376 82.0936 142.084 82.0936 139.108C82.0936 137.86 82.2736 136.672 82.6336 135.544C83.0176 134.416 83.5456 133.42 84.2176 132.556C84.9136 131.692 85.7416 131.008 86.7016 130.504C87.6616 129.976 88.7296 129.712 89.9056 129.712C90.7936 129.712 91.6336 129.844 92.4256 130.108C93.2176 130.348 93.9016 130.708 94.4776 131.188C95.0776 131.644 95.5456 132.22 95.8816 132.916C96.2416 133.588 96.4216 134.344 96.4216 135.184C96.4216 136.24 96.1936 137.128 95.7376 137.848C95.2816 138.568 94.6816 139.144 93.9376 139.576C93.2176 140.008 92.3776 140.32 91.4176 140.512C90.4816 140.704 89.5096 140.8 88.5016 140.8H84.2536ZM89.9056 131.476C89.0416 131.476 88.2496 131.692 87.5296 132.124C86.8336 132.556 86.2336 133.12 85.7296 133.816C85.2256 134.512 84.8296 135.304 84.5416 136.192C84.2776 137.08 84.1456 137.992 84.1456 138.928H88.5016C89.7256 138.928 90.7216 138.82 91.4896 138.604C92.2576 138.364 92.8576 138.064 93.2896 137.704C93.7216 137.344 94.0096 136.948 94.1536 136.516C94.2976 136.06 94.3696 135.616 94.3696 135.184C94.3696 134.056 93.9496 133.156 93.1096 132.484C92.2936 131.812 91.2256 131.476 89.9056 131.476ZM101.697 121.864H103.677V142.852C103.677 143.812 103.797 144.64 104.037 145.336C104.277 146.032 104.637 146.632 105.117 147.136L103.893 148.324C103.437 148.012 103.065 147.64 102.777 147.208C102.489 146.776 102.261 146.32 102.093 145.84C101.949 145.36 101.841 144.868 101.769 144.364C101.721 143.86 101.697 143.356 101.697 142.852V121.864ZM118.225 148.36C116.881 148.36 115.657 148.132 114.553 147.676C113.449 147.22 112.501 146.584 111.709 145.768C110.941 144.928 110.341 143.944 109.909 142.816C109.477 141.688 109.261 140.452 109.261 139.108C109.261 137.764 109.477 136.528 109.909 135.4C110.341 134.248 110.941 133.252 111.709 132.412C112.501 131.572 113.449 130.912 114.553 130.432C115.657 129.952 116.881 129.712 118.225 129.712C119.569 129.712 120.781 129.952 121.861 130.432C122.965 130.888 123.901 131.536 124.669 132.376C125.461 133.192 126.073 134.176 126.505 135.328C126.937 136.456 127.153 137.68 127.153 139C127.153 140.344 126.937 141.592 126.505 142.744C126.073 143.896 125.461 144.892 124.669 145.732C123.901 146.548 122.965 147.196 121.861 147.676C120.781 148.132 119.569 148.36 118.225 148.36ZM118.225 131.584C117.169 131.584 116.221 131.764 115.381 132.124C114.541 132.484 113.809 132.988 113.185 133.636C112.585 134.284 112.117 135.064 111.781 135.976C111.469 136.888 111.313 137.896 111.313 139C111.313 140.128 111.469 141.16 111.781 142.096C112.117 143.008 112.585 143.788 113.185 144.436C113.809 145.084 114.541 145.588 115.381 145.948C116.221 146.308 117.169 146.488 118.225 146.488C119.257 146.488 120.193 146.308 121.033 145.948C121.897 145.564 122.629 145.048 123.229 144.4C123.829 143.728 124.285 142.936 124.597 142.024C124.933 141.088 125.101 140.056 125.101 138.928C125.101 137.824 124.933 136.828 124.597 135.94C124.285 135.028 123.829 134.248 123.229 133.6C122.629 132.952 121.897 132.46 121.033 132.124C120.193 131.764 119.257 131.584 118.225 131.584ZM139.561 129.712C140.785 129.712 141.865 129.952 142.801 130.432C143.761 130.912 144.565 131.572 145.213 132.412C145.885 133.252 146.389 134.236 146.725 135.364C147.061 136.468 147.229 137.668 147.229 138.964C147.229 140.308 147.025 141.556 146.617 142.708C146.233 143.836 145.669 144.82 144.925 145.66C144.205 146.5 143.329 147.16 142.297 147.64C141.265 148.12 140.113 148.36 138.841 148.36C137.833 148.36 136.933 148.324 136.141 148.252C135.373 148.18 134.713 148.108 134.161 148.036V157H132.181V135.292C132.181 134.332 132.061 133.504 131.821 132.808C131.581 132.112 131.221 131.512 130.741 131.008L131.965 129.82C132.493 130.228 132.901 130.684 133.189 131.188C133.501 131.692 133.729 132.244 133.873 132.844C134.377 131.86 135.121 131.092 136.105 130.54C137.113 129.988 138.265 129.712 139.561 129.712ZM139.561 131.584C138.961 131.584 138.361 131.68 137.761 131.872C137.161 132.064 136.609 132.352 136.105 132.736C135.601 133.12 135.169 133.6 134.809 134.176C134.449 134.752 134.233 135.424 134.161 136.192V146.164C134.593 146.212 135.229 146.284 136.069 146.38C136.909 146.452 137.821 146.488 138.805 146.488C139.765 146.488 140.629 146.308 141.397 145.948C142.189 145.588 142.861 145.084 143.413 144.436C143.989 143.788 144.421 143.008 144.709 142.096C145.021 141.184 145.177 140.176 145.177 139.072C145.177 138.112 145.057 137.176 144.817 136.264C144.577 135.352 144.217 134.56 143.737 133.888C143.281 133.192 142.705 132.64 142.009 132.232C141.313 131.8 140.497 131.584 139.561 131.584ZM163.056 148V135.904C163.056 134.392 162.732 133.3 162.084 132.628C161.46 131.932 160.56 131.584 159.384 131.584C158.904 131.584 158.412 131.668 157.908 131.836C157.404 131.98 156.912 132.208 156.432 132.52C155.976 132.832 155.556 133.204 155.172 133.636C154.788 134.068 154.476 134.56 154.236 135.112V135.292V148H152.256V135.292C152.256 134.332 152.136 133.504 151.896 132.808C151.656 132.112 151.296 131.512 150.816 131.008L152.04 129.82C152.592 130.228 153.012 130.708 153.3 131.26C153.612 131.788 153.84 132.364 153.984 132.988C154.632 131.884 155.436 131.068 156.396 130.54C157.38 129.988 158.448 129.712 159.6 129.712C160.776 129.712 161.808 129.988 162.696 130.54C163.584 131.092 164.232 131.932 164.64 133.06C165.336 131.908 166.188 131.068 167.196 130.54C168.204 129.988 169.2 129.712 170.184 129.712C171.912 129.712 173.292 130.216 174.324 131.224C175.38 132.232 175.908 133.66 175.908 135.508C175.908 136.372 175.884 137.164 175.836 137.884C175.812 138.58 175.776 139.24 175.728 139.864C175.704 140.488 175.668 141.088 175.62 141.664C175.596 142.24 175.584 142.816 175.584 143.392C175.584 144.184 175.644 144.94 175.764 145.66C175.884 146.38 176.112 147.16 176.448 148H174.54C174.156 147.28 173.904 146.476 173.784 145.588C173.664 144.676 173.604 143.872 173.604 143.176C173.604 142.6 173.616 142.06 173.64 141.556C173.664 141.052 173.688 140.524 173.712 139.972C173.76 139.396 173.796 138.784 173.82 138.136C173.868 137.488 173.892 136.744 173.892 135.904C173.892 134.416 173.58 133.324 172.956 132.628C172.356 131.932 171.444 131.584 170.22 131.584C168.012 131.584 166.284 132.772 165.036 135.148V135.508V148H163.056ZM182.761 140.8C182.977 142.672 183.565 144.088 184.525 145.048C185.509 146.008 186.937 146.488 188.809 146.488C189.817 146.488 190.777 146.32 191.689 145.984C192.601 145.648 193.513 145.24 194.425 144.76L195.361 146.272C194.521 146.848 193.537 147.34 192.409 147.748C191.305 148.156 190.105 148.36 188.809 148.36C186.097 148.36 184.045 147.568 182.653 145.984C181.285 144.376 180.601 142.084 180.601 139.108C180.601 137.86 180.781 136.672 181.141 135.544C181.525 134.416 182.053 133.42 182.725 132.556C183.421 131.692 184.249 131.008 185.209 130.504C186.169 129.976 187.237 129.712 188.413 129.712C189.301 129.712 190.141 129.844 190.933 130.108C191.725 130.348 192.409 130.708 192.985 131.188C193.585 131.644 194.053 132.22 194.389 132.916C194.749 133.588 194.929 134.344 194.929 135.184C194.929 136.24 194.701 137.128 194.245 137.848C193.789 138.568 193.189 139.144 192.445 139.576C191.725 140.008 190.885 140.32 189.925 140.512C188.989 140.704 188.017 140.8 187.009 140.8H182.761ZM188.413 131.476C187.549 131.476 186.757 131.692 186.037 132.124C185.341 132.556 184.741 133.12 184.237 133.816C183.733 134.512 183.337 135.304 183.049 136.192C182.785 137.08 182.653 137.992 182.653 138.928H187.009C188.233 138.928 189.229 138.82 189.997 138.604C190.765 138.364 191.365 138.064 191.797 137.704C192.229 137.344 192.517 136.948 192.661 136.516C192.805 136.06 192.877 135.616 192.877 135.184C192.877 134.056 192.457 133.156 191.617 132.484C190.801 131.812 189.733 131.476 188.413 131.476ZM212.949 148C212.565 147.28 212.313 146.476 212.193 145.588C212.073 144.676 212.013 143.872 212.013 143.176C212.013 142.6 212.025 142.06 212.049 141.556C212.073 141.052 212.097 140.524 212.121 139.972C212.169 139.396 212.205 138.784 212.229 138.136C212.277 137.488 212.301 136.744 212.301 135.904C212.301 134.416 211.965 133.324 211.293 132.628C210.621 131.932 209.601 131.584 208.233 131.584C206.937 131.584 205.845 131.908 204.957 132.556C204.069 133.18 203.205 134.068 202.365 135.22V135.292V148H200.385V135.292C200.385 134.332 200.265 133.504 200.025 132.808C199.785 132.112 199.425 131.512 198.945 131.008L200.169 129.82C200.745 130.228 201.189 130.732 201.501 131.332C201.813 131.908 202.029 132.508 202.149 133.132C202.941 131.98 203.841 131.128 204.849 130.576C205.881 130 207.009 129.712 208.233 129.712C210.345 129.712 211.881 130.216 212.841 131.224C213.801 132.232 214.281 133.66 214.281 135.508C214.281 136.372 214.257 137.164 214.209 137.884C214.185 138.58 214.149 139.24 214.101 139.864C214.077 140.488 214.053 141.088 214.029 141.664C214.005 142.24 213.993 142.816 213.993 143.392C213.993 144.184 214.053 144.94 214.173 145.66C214.293 146.38 214.521 147.16 214.857 148H212.949ZM220.252 129.856C220.252 128.896 220.132 128.068 219.892 127.372C219.652 126.676 219.292 126.076 218.812 125.572L220.036 124.384C220.492 124.72 220.852 125.104 221.116 125.536C221.404 125.944 221.632 126.388 221.8 126.868C221.968 127.348 222.076 127.84 222.124 128.344C222.196 128.848 222.232 129.352 222.232 129.856V130.072H227.92V132.052H222.232V142.852C222.232 143.548 222.304 144.136 222.448 144.616C222.592 145.072 222.784 145.444 223.024 145.732C223.264 145.996 223.552 146.188 223.888 146.308C224.224 146.428 224.572 146.488 224.932 146.488C225.364 146.488 225.82 146.428 226.3 146.308C226.78 146.164 227.236 146.008 227.668 145.84C228.1 145.648 228.484 145.456 228.82 145.264C229.18 145.048 229.468 144.88 229.684 144.76L230.62 146.272C230.428 146.416 230.116 146.608 229.684 146.848C229.276 147.088 228.796 147.328 228.244 147.568C227.692 147.784 227.092 147.964 226.444 148.108C225.82 148.276 225.196 148.36 224.572 148.36C223.996 148.36 223.444 148.264 222.916 148.072C222.412 147.904 221.956 147.616 221.548 147.208C221.164 146.776 220.852 146.212 220.612 145.516C220.372 144.796 220.252 143.908 220.252 142.852V129.856Z" fill="black"/>
<path d="M374.5 248L745.592 596H3.40811L374.5 248Z" fill="#618578"/>
<path d="M373.881 249.381L709.16 557.872L214.793 676.312L373.881 249.381Z" fill="black" fill-opacity="0.1"/>
<path d="M247.656 540.464C246.616 540.464 245.819 540.715 245.264 541.218C244.709 541.703 244.432 542.31 244.432 543.038C244.432 543.679 244.553 544.217 244.796 544.65C245.039 545.083 245.359 545.447 245.758 545.742C246.157 546.037 246.607 546.288 247.11 546.496C247.63 546.704 248.167 546.903 248.722 547.094C249.311 547.302 249.909 547.553 250.516 547.848C251.123 548.125 251.669 548.481 252.154 548.914C252.639 549.33 253.029 549.841 253.324 550.448C253.636 551.037 253.792 551.757 253.792 552.606C253.792 553.455 253.619 554.175 253.272 554.764C252.925 555.353 252.466 555.839 251.894 556.22C251.339 556.584 250.698 556.844 249.97 557C249.242 557.173 248.497 557.26 247.734 557.26C246.607 557.26 245.533 557.078 244.51 556.714C243.505 556.333 242.638 555.873 241.91 555.336L242.768 554.088C243.097 554.296 243.453 554.504 243.834 554.712C244.215 554.903 244.623 555.085 245.056 555.258C245.507 555.431 245.975 555.57 246.46 555.674C246.945 555.778 247.465 555.83 248.02 555.83C248.575 555.83 249.103 555.778 249.606 555.674C250.109 555.553 250.551 555.371 250.932 555.128C251.313 554.868 251.617 554.539 251.842 554.14C252.067 553.724 252.18 553.213 252.18 552.606C252.18 551.982 252.059 551.453 251.816 551.02C251.573 550.569 251.253 550.188 250.854 549.876C250.455 549.547 249.996 549.269 249.476 549.044C248.956 548.801 248.419 548.576 247.864 548.368C247.275 548.143 246.677 547.909 246.07 547.666C245.481 547.406 244.943 547.085 244.458 546.704C243.973 546.305 243.574 545.82 243.262 545.248C242.967 544.659 242.82 543.922 242.82 543.038C242.82 542.501 242.933 541.989 243.158 541.504C243.401 541.019 243.739 540.594 244.172 540.23C244.623 539.866 245.16 539.58 245.784 539.372C246.425 539.147 247.136 539.034 247.916 539.034C248.436 539.034 248.895 539.043 249.294 539.06C249.693 539.077 250.013 539.086 250.256 539.086C250.845 539.086 251.305 539.025 251.634 538.904C251.981 538.765 252.336 538.523 252.7 538.176L253.558 539.06C253.315 539.389 253.073 539.649 252.83 539.84C252.587 540.031 252.327 540.178 252.05 540.282C251.79 540.386 251.513 540.455 251.218 540.49C250.923 540.507 250.603 540.516 250.256 540.516C249.961 540.516 249.58 540.507 249.112 540.49C248.644 540.473 248.159 540.464 247.656 540.464ZM257.308 543.896C257.308 543.203 257.221 542.605 257.048 542.102C256.875 541.599 256.615 541.166 256.268 540.802L257.152 539.944C257.481 540.187 257.741 540.464 257.932 540.776C258.14 541.071 258.305 541.391 258.426 541.738C258.547 542.085 258.625 542.44 258.66 542.804C258.712 543.168 258.738 543.532 258.738 543.896V544.052H262.846V545.482H258.738V553.282C258.738 553.785 258.79 554.209 258.894 554.556C258.998 554.885 259.137 555.154 259.31 555.362C259.483 555.553 259.691 555.691 259.934 555.778C260.177 555.865 260.428 555.908 260.688 555.908C261 555.908 261.329 555.865 261.676 555.778C262.023 555.674 262.352 555.561 262.664 555.44C262.976 555.301 263.253 555.163 263.496 555.024C263.756 554.868 263.964 554.747 264.12 554.66L264.796 555.752C264.657 555.856 264.432 555.995 264.12 556.168C263.825 556.341 263.479 556.515 263.08 556.688C262.681 556.844 262.248 556.974 261.78 557.078C261.329 557.199 260.879 557.26 260.428 557.26C260.012 557.26 259.613 557.191 259.232 557.052C258.868 556.931 258.539 556.723 258.244 556.428C257.967 556.116 257.741 555.709 257.568 555.206C257.395 554.686 257.308 554.045 257.308 553.282V543.896ZM268.317 551.8C268.473 553.152 268.898 554.175 269.591 554.868C270.302 555.561 271.333 555.908 272.685 555.908C273.413 555.908 274.107 555.787 274.765 555.544C275.424 555.301 276.083 555.007 276.741 554.66L277.417 555.752C276.811 556.168 276.1 556.523 275.285 556.818C274.488 557.113 273.621 557.26 272.685 557.26C270.727 557.26 269.245 556.688 268.239 555.544C267.251 554.383 266.757 552.727 266.757 550.578C266.757 549.677 266.887 548.819 267.147 548.004C267.425 547.189 267.806 546.47 268.291 545.846C268.794 545.222 269.392 544.728 270.085 544.364C270.779 543.983 271.55 543.792 272.399 543.792C273.041 543.792 273.647 543.887 274.219 544.078C274.791 544.251 275.285 544.511 275.701 544.858C276.135 545.187 276.473 545.603 276.715 546.106C276.975 546.591 277.105 547.137 277.105 547.744C277.105 548.507 276.941 549.148 276.611 549.668C276.282 550.188 275.849 550.604 275.311 550.916C274.791 551.228 274.185 551.453 273.491 551.592C272.815 551.731 272.113 551.8 271.385 551.8H268.317ZM272.399 545.066C271.775 545.066 271.203 545.222 270.683 545.534C270.181 545.846 269.747 546.253 269.383 546.756C269.019 547.259 268.733 547.831 268.525 548.472C268.335 549.113 268.239 549.772 268.239 550.448H271.385C272.269 550.448 272.989 550.37 273.543 550.214C274.098 550.041 274.531 549.824 274.843 549.564C275.155 549.304 275.363 549.018 275.467 548.706C275.571 548.377 275.623 548.056 275.623 547.744C275.623 546.929 275.32 546.279 274.713 545.794C274.124 545.309 273.353 545.066 272.399 545.066ZM286.375 543.792C287.259 543.792 288.039 543.965 288.715 544.312C289.408 544.659 289.989 545.135 290.457 545.742C290.942 546.349 291.306 547.059 291.549 547.874C291.792 548.671 291.913 549.538 291.913 550.474C291.913 551.445 291.766 552.346 291.471 553.178C291.194 553.993 290.786 554.703 290.249 555.31C289.729 555.917 289.096 556.393 288.351 556.74C287.606 557.087 286.774 557.26 285.855 557.26C285.127 557.26 284.477 557.234 283.905 557.182C283.35 557.13 282.874 557.078 282.475 557.026V563.5H281.045V547.822C281.045 547.129 280.958 546.531 280.785 546.028C280.612 545.525 280.352 545.092 280.005 544.728L280.889 543.87C281.27 544.165 281.565 544.494 281.773 544.858C281.998 545.222 282.163 545.621 282.267 546.054C282.631 545.343 283.168 544.789 283.879 544.39C284.607 543.991 285.439 543.792 286.375 543.792ZM286.375 545.144C285.942 545.144 285.508 545.213 285.075 545.352C284.642 545.491 284.243 545.699 283.879 545.976C283.515 546.253 283.203 546.6 282.943 547.016C282.683 547.432 282.527 547.917 282.475 548.472V555.674C282.787 555.709 283.246 555.761 283.853 555.83C284.46 555.882 285.118 555.908 285.829 555.908C286.522 555.908 287.146 555.778 287.701 555.518C288.273 555.258 288.758 554.894 289.157 554.426C289.573 553.958 289.885 553.395 290.093 552.736C290.318 552.077 290.431 551.349 290.431 550.552C290.431 549.859 290.344 549.183 290.171 548.524C289.998 547.865 289.738 547.293 289.391 546.808C289.062 546.305 288.646 545.907 288.143 545.612C287.64 545.3 287.051 545.144 286.375 545.144ZM304.487 557C304.21 556.48 304.028 555.899 303.941 555.258C303.854 554.599 303.811 554.019 303.811 553.516C303.811 553.1 303.82 552.71 303.837 552.346C303.854 551.982 303.872 551.601 303.889 551.202C303.924 550.786 303.95 550.344 303.967 549.876C304.002 549.408 304.019 548.871 304.019 548.264C304.019 547.189 303.776 546.401 303.291 545.898C302.806 545.395 302.069 545.144 301.081 545.144C300.145 545.144 299.356 545.378 298.715 545.846C298.074 546.297 297.45 546.938 296.843 547.77V557H295.413V538.124H296.843V546.08C297.398 545.3 298.03 544.728 298.741 544.364C299.469 543.983 300.249 543.792 301.081 543.792C302.606 543.792 303.716 544.156 304.409 544.884C305.102 545.612 305.449 546.643 305.449 547.978C305.449 548.602 305.432 549.174 305.397 549.694C305.38 550.197 305.354 550.673 305.319 551.124C305.302 551.575 305.284 552.008 305.267 552.424C305.25 552.84 305.241 553.256 305.241 553.672C305.241 554.244 305.284 554.79 305.371 555.31C305.458 555.83 305.622 556.393 305.865 557H304.487ZM310.415 551.8C310.571 553.152 310.996 554.175 311.689 554.868C312.4 555.561 313.431 555.908 314.783 555.908C315.511 555.908 316.204 555.787 316.863 555.544C317.522 555.301 318.18 555.007 318.839 554.66L319.515 555.752C318.908 556.168 318.198 556.523 317.383 556.818C316.586 557.113 315.719 557.26 314.783 557.26C312.824 557.26 311.342 556.688 310.337 555.544C309.349 554.383 308.855 552.727 308.855 550.578C308.855 549.677 308.985 548.819 309.245 548.004C309.522 547.189 309.904 546.47 310.389 545.846C310.892 545.222 311.49 544.728 312.183 544.364C312.876 543.983 313.648 543.792 314.497 543.792C315.138 543.792 315.745 543.887 316.317 544.078C316.889 544.251 317.383 544.511 317.799 544.858C318.232 545.187 318.57 545.603 318.813 546.106C319.073 546.591 319.203 547.137 319.203 547.744C319.203 548.507 319.038 549.148 318.709 549.668C318.38 550.188 317.946 550.604 317.409 550.916C316.889 551.228 316.282 551.453 315.589 551.592C314.913 551.731 314.211 551.8 313.483 551.8H310.415ZM314.497 545.066C313.873 545.066 313.301 545.222 312.781 545.534C312.278 545.846 311.845 546.253 311.481 546.756C311.117 547.259 310.831 547.831 310.623 548.472C310.432 549.113 310.337 549.772 310.337 550.448H313.483C314.367 550.448 315.086 550.37 315.641 550.214C316.196 550.041 316.629 549.824 316.941 549.564C317.253 549.304 317.461 549.018 317.565 548.706C317.669 548.377 317.721 548.056 317.721 547.744C317.721 546.929 317.418 546.279 316.811 545.794C316.222 545.309 315.45 545.066 314.497 545.066ZM332.217 557C331.939 556.48 331.757 555.899 331.671 555.258C331.584 554.599 331.541 554.019 331.541 553.516C331.541 553.1 331.549 552.71 331.567 552.346C331.584 551.982 331.601 551.601 331.619 551.202C331.653 550.786 331.679 550.344 331.697 549.876C331.731 549.408 331.749 548.871 331.749 548.264C331.749 547.189 331.506 546.401 331.021 545.898C330.535 545.395 329.799 545.144 328.811 545.144C327.875 545.144 327.086 545.378 326.445 545.846C325.803 546.297 325.179 546.938 324.573 547.77V547.822V557H323.143V547.822C323.143 547.129 323.056 546.531 322.883 546.028C322.709 545.525 322.449 545.092 322.103 544.728L322.987 543.87C323.403 544.165 323.723 544.529 323.949 544.962C324.174 545.378 324.33 545.811 324.417 546.262C324.989 545.43 325.639 544.815 326.367 544.416C327.112 544 327.927 543.792 328.811 543.792C330.336 543.792 331.445 544.156 332.139 544.884C332.832 545.612 333.179 546.643 333.179 547.978C333.179 548.602 333.161 549.174 333.127 549.694C333.109 550.197 333.083 550.673 333.049 551.124C333.031 551.575 333.014 552.008 332.997 552.424C332.979 552.84 332.971 553.256 332.971 553.672C332.971 554.244 333.014 554.79 333.101 555.31C333.187 555.83 333.352 556.393 333.595 557H332.217ZM356.336 551.67C355.712 551.549 355.14 551.367 354.62 551.124C354.1 550.864 353.624 550.587 353.19 550.292C352.757 549.98 352.367 549.659 352.02 549.33C351.674 548.983 351.37 548.654 351.11 548.342L348.562 545.196C348.268 544.849 347.947 544.433 347.6 543.948C347.271 543.463 346.959 542.986 346.664 542.518C346.716 542.951 346.76 543.411 346.794 543.896C346.846 544.364 346.872 544.797 346.872 545.196V557H345.286V538.982H345.78L352.696 547.796C352.818 547.987 353 548.195 353.242 548.42L361.016 538.982H361.51V557H359.924V545.196C359.924 544.763 359.942 544.277 359.976 543.74C360.028 543.185 360.08 542.683 360.132 542.232C359.768 542.735 359.387 543.263 358.988 543.818C358.59 544.355 358.226 544.815 357.896 545.196L354.36 549.382C354.707 549.625 355.071 549.85 355.452 550.058C355.851 550.249 356.276 550.396 356.726 550.5L356.336 551.67ZM366.306 543.87C366.636 544.113 366.896 544.39 367.086 544.702C367.294 544.997 367.459 545.317 367.58 545.664C367.702 546.011 367.78 546.366 367.814 546.73C367.866 547.094 367.892 547.458 367.892 547.822V557H366.462V547.822C366.462 547.129 366.376 546.531 366.202 546.028C366.029 545.525 365.769 545.092 365.422 544.728L366.306 543.87ZM365.76 539.788C365.76 539.441 365.873 539.155 366.098 538.93C366.341 538.687 366.627 538.566 366.956 538.566C367.303 538.566 367.589 538.687 367.814 538.93C368.057 539.155 368.178 539.441 368.178 539.788C368.178 540.117 368.057 540.403 367.814 540.646C367.589 540.871 367.303 540.984 366.956 540.984C366.627 540.984 366.341 540.871 366.098 540.646C365.873 540.403 365.76 540.117 365.76 539.788ZM379.081 557.338C378.422 557.338 377.815 557.286 377.261 557.182C376.723 557.078 376.203 556.939 375.701 556.766L373.127 555.934L372.035 557.52L370.917 556.662L378.587 545.404H371.905V544.052H381.031V544.39L373.933 554.738L376.013 555.466C376.515 555.639 377.009 555.769 377.495 555.856C377.98 555.943 378.509 555.986 379.081 555.986C379.791 555.986 380.571 555.683 381.421 555.076L382.071 556.22C381.048 556.965 380.051 557.338 379.081 557.338ZM385.19 551.8C385.346 553.152 385.771 554.175 386.464 554.868C387.175 555.561 388.206 555.908 389.558 555.908C390.286 555.908 390.98 555.787 391.638 555.544C392.297 555.301 392.956 555.007 393.614 554.66L394.29 555.752C393.684 556.168 392.973 556.523 392.158 556.818C391.361 557.113 390.494 557.26 389.558 557.26C387.6 557.26 386.118 556.688 385.112 555.544C384.124 554.383 383.63 552.727 383.63 550.578C383.63 549.677 383.76 548.819 384.02 548.004C384.298 547.189 384.679 546.47 385.164 545.846C385.667 545.222 386.265 544.728 386.958 544.364C387.652 543.983 388.423 543.792 389.272 543.792C389.914 543.792 390.52 543.887 391.092 544.078C391.664 544.251 392.158 544.511 392.574 544.858C393.008 545.187 393.346 545.603 393.588 546.106C393.848 546.591 393.978 547.137 393.978 547.744C393.978 548.507 393.814 549.148 393.484 549.668C393.155 550.188 392.722 550.604 392.184 550.916C391.664 551.228 391.058 551.453 390.364 551.592C389.688 551.731 388.986 551.8 388.258 551.8H385.19ZM389.272 545.066C388.648 545.066 388.076 545.222 387.556 545.534C387.054 545.846 386.62 546.253 386.256 546.756C385.892 547.259 385.606 547.831 385.398 548.472C385.208 549.113 385.112 549.772 385.112 550.448H388.258C389.142 550.448 389.862 550.37 390.416 550.214C390.971 550.041 391.404 549.824 391.716 549.564C392.028 549.304 392.236 549.018 392.34 548.706C392.444 548.377 392.496 548.056 392.496 547.744C392.496 546.929 392.193 546.279 391.586 545.794C390.997 545.309 390.226 545.066 389.272 545.066ZM397.788 538.124H399.218V553.282C399.218 553.975 399.305 554.573 399.478 555.076C399.651 555.579 399.911 556.012 400.258 556.376L399.374 557.234C399.045 557.009 398.776 556.74 398.568 556.428C398.36 556.116 398.195 555.787 398.074 555.44C397.97 555.093 397.892 554.738 397.84 554.374C397.805 554.01 397.788 553.646 397.788 553.282V538.124ZM404.161 538.124H405.591V553.282C405.591 553.975 405.678 554.573 405.851 555.076C406.025 555.579 406.285 556.012 406.631 556.376L405.747 557.234C405.418 557.009 405.149 556.74 404.941 556.428C404.733 556.116 404.569 555.787 404.447 555.44C404.343 555.093 404.265 554.738 404.213 554.374C404.179 554.01 404.161 553.646 404.161 553.282V538.124Z" fill="white"/>
</g>
<defs>
<clipPath id="clip0_1_2">
<rect width="420" height="595" fill="white"/>
</clipPath>
</defs>
</svg>
